<mxfile host="65bd71144e">
    <diagram id="HIP3nbAZw_EuaXWnEj3U" name="Page-1">
        <mxGraphModel dx="532" dy="346" grid="1" gridSize="10" guides="1" tooltips="1" connect="1" arrows="1" fold="1" page="1" pageScale="1" pageWidth="850" pageHeight="1100" math="0" shadow="0">
            <root>
                <mxCell id="0"/>
                <mxCell id="1" parent="0"/>
                <mxCell id="2" value="" style="shape=image;verticalLabelPosition=bottom;labelBackgroundColor=default;verticalAlign=top;aspect=fixed;imageAspect=0;image=data:image/png,iVBORw0KGgoAAAANSUhEUgAAAbcAAAP0CAYAAAApxHIAAAAAAXNSR0IArs4c6QAAQrJ0RVh0bXhmaWxlACUzQ214ZmlsZSUzRSUwQSUyMCUyMCUzQ2RpYWdyYW0lMjBpZCUzRCUyMkhJUDNuYkFad19FdWFYV25FajNVJTIyJTIwbmFtZSUzRCUyMlBhZ2UtMSUyMiUzRSUwQSUyMCUyMCUyMCUyMCUzQ214R3JhcGhNb2RlbCUyMGR4JTNEJTIyMTcyNiUyMiUyMGR5JTNEJTIyMTA1MiUyMiUyMGdyaWQlM0QlMjIxJTIyJTIwZ3JpZFNpemUlM0QlMjIxMCUyMiUyMGd1aWRlcyUzRCUyMjElMjIlMjB0b29sdGlwcyUzRCUyMjElMjIlMjBjb25uZWN0JTNEJTIyMSUyMiUyMGFycm93cyUzRCUyMjElMjIlMjBmb2xkJTNEJTIyMSUyMiUyMHBhZ2UlM0QlMjIxJTIyJTIwcGFnZVNjYWxlJTNEJTIyMSUyMiUyMHBhZ2VXaWR0aCUzRCUyMjg1MCUyMiUyMHBhZ2VIZWlnaHQlM0QlMjIxMTAwJTIyJTIwbWF0aCUzRCUyMjAlMjIlMjBzaGFkb3clM0QlMjIwJTIyJTNFJTBBJTIwJTIwJTIwJTIwJTIwJTIwJTNDcm9vdCUzRSUwQSUyMCUyMCUyMCUyMCUyMCUyMCUyMCUyMCUzQ214Q2VsbCUyMGlkJTNEJTIyMCUyMiUyMCUyRiUzRSUwQSUyMCUyMCUyMCUyMCUyMCUyMCUyMCUyMCUzQ214Q2VsbCUyMGlkJTNEJTIyMSUyMiUyMHBhcmVudCUzRCUyMjAlMjIlMjAlMkYlM0UlMEElMjAlMjAlMjAlMjAlMjAlMjAlMjAlMjAlM0NteENlbGwlMjBpZCUzRCUyMjEzJTIyJTIwc3R5bGUlM0QlMjJlZGdlU3R5bGUlM0RvcnRob2dvbmFsRWRnZVN0eWxlJTNCc2hhcGUlM0Rjb25uZWN0b3IlM0JjdXJ2ZWQlM0QwJTNCcm91bmRlZCUzRDAlM0JodG1sJTNEMSUzQmV4aXRYJTNEMC41JTNCZXhpdFklM0QxJTNCZXhpdER4JTNEMCUzQmV4aXREeSUzRDAlM0JleGl0UGVyaW1ldGVyJTNEMCUzQmVudHJ5WCUzRDAuNSUzQmVudHJ5WSUzRDAlM0JlbnRyeUR4JTNEMCUzQmVudHJ5RHklM0QwJTNCc3Ryb2tlQ29sb3IlM0RkZWZhdWx0JTNCYWxpZ24lM0RjZW50ZXIlM0J2ZXJ0aWNhbEFsaWduJTNEbWlkZGxlJTNCZm9udEZhbWlseSUzREhlbHZldGljYSUzQmZvbnRTaXplJTNEMTElM0Jmb250Q29sb3IlM0RkZWZhdWx0JTNCbGFiZWxCYWNrZ3JvdW5kQ29sb3IlM0RkZWZhdWx0JTNCZW5kQXJyb3clM0RjbGFzc2ljJTNCJTIyJTIwcGFyZW50JTNEJTIyMSUyMiUyMHNvdXJjZSUzRCUyMjIlMjIlMjB0YXJnZXQlM0QlMjIxMiUyMiUyMGVkZ2UlM0QlMjIxJTIyJTNFJTBBJTIwJTIwJTIwJTIwJTIwJTIwJTIwJTIwJTIwJTIwJTNDbXhHZW9tZXRyeSUyMHJlbGF0aXZlJTNEJTIyMSUyMiUyMGFzJTNEJTIyZ2VvbWV0cnklMjIlMjAlMkYlM0UlMEElMjAlMjAlMjAlMjAlMjAlMjAlMjAlMjAlM0MlMkZteENlbGwlM0UlMEElMjAlMjAlMjAlMjAlMjAlMjAlMjAlMjAlM0NteENlbGwlMjBpZCUzRCUyMjIlMjIlMjB2YWx1ZSUzRCUyMlN0YXJ0JTIyJTIwc3R5bGUlM0QlMjJzdHJva2VXaWR0aCUzRDIlM0JodG1sJTNEMSUzQnNoYXBlJTNEbXhncmFwaC5mbG93Y2hhcnQudGVybWluYXRvciUzQndoaXRlU3BhY2UlM0R3cmFwJTNCJTIyJTIwcGFyZW50JTNEJTIyMSUyMiUyMHZlcnRleCUzRCUyMjElMjIlM0UlMEElMjAlMjAlMjAlMjAlMjAlMjAlMjAlMjAlMjAlMjAlM0NteEdlb21ldHJ5JTIweCUzRCUyMjMxMCUyMiUyMHklM0QlMjIzMCUyMiUyMHdpZHRoJTNEJTIyMTAwJTIyJTIwaGVpZ2h0JTNEJTIyNjAlMjIlMjBhcyUzRCUyMmdlb21ldHJ5JTIyJTIwJTJGJTNFJTBBJTIwJTIwJTIwJTIwJTIwJTIwJTIwJTIwJTNDJTJGbXhDZWxsJTNFJTBBJTIwJTIwJTIwJTIwJTIwJTIwJTIwJTIwJTNDbXhDZWxsJTIwaWQlM0QlMjIzJTIyJTIwdmFsdWUlM0QlMjJTdG9wJTIyJTIwc3R5bGUlM0QlMjJzdHJva2VXaWR0aCUzRDIlM0JodG1sJTNEMSUzQnNoYXBlJTNEbXhncmFwaC5mbG93Y2hhcnQudGVybWluYXRvciUzQndoaXRlU3BhY2UlM0R3cmFwJTNCJTIyJTIwcGFyZW50JTNEJTIyMSUyMiUyMHZlcnRleCUzRCUyMjElMjIlM0UlMEElMjAlMjAlMjAlMjAlMjAlMjAlMjAlMjAlMjAlMjAlM0NteEdlb21ldHJ5JTIweCUzRCUyMjU0MCUyMiUyMHklM0QlMjI2MTAlMjIlMjB3aWR0aCUzRCUyMjEwMCUyMiUyMGhlaWdodCUzRCUyMjYwJTIyJTIwYXMlM0QlMjJnZW9tZXRyeSUyMiUyMCUyRiUzRSUwQSUyMCUyMCUyMCUyMCUyMCUyMCUyMCUyMCUzQyUyRm14Q2VsbCUzRSUwQSUyMCUyMCUyMCUyMCUyMCUyMCUyMCUyMCUzQ214Q2VsbCUyMGlkJTNEJTIyMTAlMjIlMjBzdHlsZSUzRCUyMmVkZ2VTdHlsZSUzRG9ydGhvZ29uYWxFZGdlU3R5bGUlM0JzaGFwZSUzRGNvbm5lY3RvciUzQmN1cnZlZCUzRDAlM0Jyb3VuZGVkJTNEMCUzQmh0bWwlM0QxJTNCZXhpdFglM0QwLjUlM0JleGl0WSUzRDElM0JleGl0RHglM0QwJTNCZXhpdER5JTNEMCUzQmVudHJ5WCUzRDAuNSUzQmVudHJ5WSUzRDAlM0JlbnRyeUR4JTNEMCUzQmVudHJ5RHklM0QwJTNCc3Ryb2tlQ29sb3IlM0RkZWZhdWx0JTNCYWxpZ24lM0RjZW50ZXIlM0J2ZXJ0aWNhbEFsaWduJTNEbWlkZGxlJTNCZm9udEZhbWlseSUzREhlbHZldGljYSUzQmZvbnRTaXplJTNEMTElM0Jmb250Q29sb3IlM0RkZWZhdWx0JTNCbGFiZWxCYWNrZ3JvdW5kQ29sb3IlM0RkZWZhdWx0JTNCZW5kQXJyb3clM0RjbGFzc2ljJTNCJTIyJTIwcGFyZW50JTNEJTIyMSUyMiUyMHNvdXJjZSUzRCUyMjQlMjIlMjB0YXJnZXQlM0QlMjI5JTIyJTIwZWRnZSUzRCUyMjElMjIlM0UlMEElMjAlMjAlMjAlMjAlMjAlMjAlMjAlMjAlMjAlMjAlM0NteEdlb21ldHJ5JTIwcmVsYXRpdmUlM0QlMjIxJTIyJTIwYXMlM0QlMjJnZW9tZXRyeSUyMiUyMCUyRiUzRSUwQSUyMCUyMCUyMCUyMCUyMCUyMCUyMCUyMCUzQyUyRm14Q2VsbCUzRSUwQSUyMCUyMCUyMCUyMCUyMCUyMCUyMCUyMCUzQ214Q2VsbCUyMGlkJTNEJTIyNCUyMiUyMHZhbHVlJTNEJTIyZ2V0JTIwdXNlcklucHV0MiUyMiUyMHN0eWxlJTNEJTIyc2hhcGUlM0RwYXJhbGxlbG9ncmFtJTNCaHRtbCUzRDElM0JzdHJva2VXaWR0aCUzRDIlM0JwZXJpbWV0ZXIlM0RwYXJhbGxlbG9ncmFtUGVyaW1ldGVyJTNCd2hpdGVTcGFjZSUzRHdyYXAlM0Jyb3VuZGVkJTNEMSUzQmFyY1NpemUlM0QxMiUzQnNpemUlM0QwLjIzJTNCJTIyJTIwcGFyZW50JTNEJTIyMSUyMiUyMHZlcnRleCUzRCUyMjElMjIlM0UlMEElMjAlMjAlMjAlMjAlMjAlMjAlMjAlMjAlMjAlMjAlM0NteEdlb21ldHJ5JTIweCUzRCUyMjMwNSUyMiUyMHklM0QlMjIzNTAlMjIlMjB3aWR0aCUzRCUyMjExMCUyMiUyMGhlaWdodCUzRCUyMjUwJTIyJTIwYXMlM0QlMjJnZW9tZXRyeSUyMiUyMCUyRiUzRSUwQSUyMCUyMCUyMCUyMCUyMCUyMCUyMCUyMCUzQyUyRm14Q2VsbCUzRSUwQSUyMCUyMCUyMCUyMCUyMCUyMCUyMCUyMCUzQ214Q2VsbCUyMGlkJTNEJTIyMzclMjIlMjBzdHlsZSUzRCUyMmVkZ2VTdHlsZSUzRG5vbmUlM0JodG1sJTNEMSUzQmV4aXRYJTNEMC41JTNCZXhpdFklM0QxJTNCZXhpdER4JTNEMCUzQmV4aXREeSUzRDAlM0JleGl0UGVyaW1ldGVyJTNEMCUzQmVudHJ5WCUzRDAuNSUzQmVudHJ5WSUzRDAlM0JlbnRyeUR4JTNEMCUzQmVudHJ5RHklM0QwJTNCJTIyJTIwZWRnZSUzRCUyMjElMjIlMjBwYXJlbnQlM0QlMjIxJTIyJTIwc291cmNlJTNEJTIyNiUyMiUyMHRhcmdldCUzRCUyMjM1JTIyJTNFJTBBJTIwJTIwJTIwJTIwJTIwJTIwJTIwJTIwJTIwJTIwJTNDbXhHZW9tZXRyeSUyMHJlbGF0aXZlJTNEJTIyMSUyMiUyMGFzJTNEJTIyZ2VvbWV0cnklMjIlMjAlMkYlM0UlMEElMjAlMjAlMjAlMjAlMjAlMjAlMjAlMjAlM0MlMkZteENlbGwlM0UlMEElMjAlMjAlMjAlMjAlMjAlMjAlMjAlMjAlM0NteENlbGwlMjBpZCUzRCUyMjYlMjIlMjB2YWx1ZSUzRCUyMndoaWxlJTIwKHRydWUpJTIyJTIwc3R5bGUlM0QlMjJzdHJva2VXaWR0aCUzRDIlM0JodG1sJTNEMSUzQnNoYXBlJTNEbXhncmFwaC5mbG93Y2hhcnQuZGVjaXNpb24lM0J3aGl0ZVNwYWNlJTNEd3JhcCUzQmZvbnRGYW1pbHklM0RIZWx2ZXRpY2ElM0Jmb250U2l6ZSUzRDExJTNCZm9udENvbG9yJTNEZGVmYXVsdCUzQmxhYmVsQmFja2dyb3VuZENvbG9yJTNEZGVmYXVsdCUzQiUyMiUyMHBhcmVudCUzRCUyMjElMjIlMjB2ZXJ0ZXglM0QlMjIxJTIyJTNFJTBBJTIwJTIwJTIwJTIwJTIwJTIwJTIwJTIwJTIwJTIwJTNDbXhHZW9tZXRyeSUyMHglM0QlMjIzMDIuNSUyMiUyMHklM0QlMjI1MTAlMjIlMjB3aWR0aCUzRCUyMjExNSUyMiUyMGhlaWdodCUzRCUyMjEyMCUyMiUyMGFzJTNEJTIyZ2VvbWV0cnklMjIlMjAlMkYlM0UlMEElMjAlMjAlMjAlMjAlMjAlMjAlMjAlMjAlM0MlMkZteENlbGwlM0UlMEElMjAlMjAlMjAlMjAlMjAlMjAlMjAlMjAlM0NteENlbGwlMjBpZCUzRCUyMjklMjIlMjB2YWx1ZSUzRCUyMmxldCUyMG51bWJlciUyMCUzRCUyMDAlMjIlMjBzdHlsZSUzRCUyMnJvdW5kZWQlM0QxJTNCd2hpdGVTcGFjZSUzRHdyYXAlM0JodG1sJTNEMSUzQmFic29sdXRlQXJjU2l6ZSUzRDElM0JhcmNTaXplJTNEMTQlM0JzdHJva2VXaWR0aCUzRDIlM0Jmb250RmFtaWx5JTNESGVsdmV0aWNhJTNCZm9udFNpemUlM0QxMSUzQmZvbnRDb2xvciUzRGRlZmF1bHQlM0JsYWJlbEJhY2tncm91bmRDb2xvciUzRGRlZmF1bHQlM0IlMjIlMjBwYXJlbnQlM0QlMjIxJTIyJTIwdmVydGV4JTNEJTIyMSUyMiUzRSUwQSUyMCUyMCUyMCUyMCUyMCUyMCUyMCUyMCUyMCUyMCUzQ214R2VvbWV0cnklMjB4JTNEJTIyMzEwJTIyJTIweSUzRCUyMjQzMCUyMiUyMHdpZHRoJTNEJTIyMTAwJTIyJTIwaGVpZ2h0JTNEJTIyNTAlMjIlMjBhcyUzRCUyMmdlb21ldHJ5JTIyJTIwJTJGJTNFJTBBJTIwJTIwJTIwJTIwJTIwJTIwJTIwJTIwJTNDJTJGbXhDZWxsJTNFJTBBJTIwJTIwJTIwJTIwJTIwJTIwJTIwJTIwJTNDbXhDZWxsJTIwaWQlM0QlMjIxMSUyMiUyMHN0eWxlJTNEJTIyZWRnZVN0eWxlJTNEb3J0aG9nb25hbEVkZ2VTdHlsZSUzQnNoYXBlJTNEY29ubmVjdG9yJTNCY3VydmVkJTNEMCUzQnJvdW5kZWQlM0QwJTNCaHRtbCUzRDElM0JleGl0WCUzRDAuNSUzQmV4aXRZJTNEMSUzQmV4aXREeCUzRDAlM0JleGl0RHklM0QwJTNCZW50cnlYJTNEMC41JTNCZW50cnlZJTNEMCUzQmVudHJ5RHglM0QwJTNCZW50cnlEeSUzRDAlM0JlbnRyeVBlcmltZXRlciUzRDAlM0JzdHJva2VDb2xvciUzRGRlZmF1bHQlM0JhbGlnbiUzRGNlbnRlciUzQnZlcnRpY2FsQWxpZ24lM0RtaWRkbGUlM0Jmb250RmFtaWx5JTNESGVsdmV0aWNhJTNCZm9udFNpemUlM0QxMSUzQmZvbnRDb2xvciUzRGRlZmF1bHQlM0JsYWJlbEJhY2tncm91bmRDb2xvciUzRGRlZmF1bHQlM0JlbmRBcnJvdyUzRGNsYXNzaWMlM0IlMjIlMjBwYXJlbnQlM0QlMjIxJTIyJTIwc291cmNlJTNEJTIyOSUyMiUyMHRhcmdldCUzRCUyMjYlMjIlMjBlZGdlJTNEJTIyMSUyMiUzRSUwQSUyMCUyMCUyMCUyMCUyMCUyMCUyMCUyMCUyMCUyMCUzQ214R2VvbWV0cnklMjByZWxhdGl2ZSUzRCUyMjElMjIlMjBhcyUzRCUyMmdlb21ldHJ5JTIyJTIwJTJGJTNFJTBBJTIwJTIwJTIwJTIwJTIwJTIwJTIwJTIwJTNDJTJGbXhDZWxsJTNFJTBBJTIwJTIwJTIwJTIwJTIwJTIwJTIwJTIwJTNDbXhDZWxsJTIwaWQlM0QlMjIzMSUyMiUyMHN0eWxlJTNEJTIyZWRnZVN0eWxlJTNEbm9uZSUzQmh0bWwlM0QxJTNCZXhpdFglM0QwLjUlM0JleGl0WSUzRDElM0JleGl0RHglM0QwJTNCZXhpdER5JTNEMCUzQmVudHJ5WCUzRDAuNSUzQmVudHJ5WSUzRDAlM0JlbnRyeUR4JTNEMCUzQmVudHJ5RHklM0QwJTNCJTIyJTIwcGFyZW50JTNEJTIyMSUyMiUyMHNvdXJjZSUzRCUyMjEyJTIyJTIwdGFyZ2V0JTNEJTIyMjklMjIlMjBlZGdlJTNEJTIyMSUyMiUzRSUwQSUyMCUyMCUyMCUyMCUyMCUyMCUyMCUyMCUyMCUyMCUzQ214R2VvbWV0cnklMjByZWxhdGl2ZSUzRCUyMjElMjIlMjBhcyUzRCUyMmdlb21ldHJ5JTIyJTIwJTJGJTNFJTBBJTIwJTIwJTIwJTIwJTIwJTIwJTIwJTIwJTNDJTJGbXhDZWxsJTNFJTBBJTIwJTIwJTIwJTIwJTIwJTIwJTIwJTIwJTNDbXhDZWxsJTIwaWQlM0QlMjIxMiUyMiUyMHZhbHVlJTNEJTIyaW5wdXQlMjZhbXAlM0JuYnNwJTNCJTI2bHQlM0JkaXYlMjZndCUzQnVzZXJJbnB1dDElMjZsdCUzQiUyRmRpdiUyNmd0JTNCJTIyJTIwc3R5bGUlM0QlMjJzaGFwZSUzRHBhcmFsbGVsb2dyYW0lM0JodG1sJTNEMSUzQnN0cm9rZVdpZHRoJTNEMiUzQnBlcmltZXRlciUzRHBhcmFsbGVsb2dyYW1QZXJpbWV0ZXIlM0J3aGl0ZVNwYWNlJTNEd3JhcCUzQnJvdW5kZWQlM0QxJTNCYXJjU2l6ZSUzRDEyJTNCc2l6ZSUzRDAuMjMlM0IlMjIlMjBwYXJlbnQlM0QlMjIxJTIyJTIwdmVydGV4JTNEJTIyMSUyMiUzRSUwQSUyMCUyMCUyMCUyMCUyMCUyMCUyMCUyMCUyMCUyMCUzQ214R2VvbWV0cnklMjB4JTNEJTIyMzA1JTIyJTIweSUzRCUyMjEyMCUyMiUyMHdpZHRoJTNEJTIyMTEwJTIyJTIwaGVpZ2h0JTNEJTIyNTAlMjIlMjBhcyUzRCUyMmdlb21ldHJ5JTIyJTIwJTJGJTNFJTBBJTIwJTIwJTIwJTIwJTIwJTIwJTIwJTIwJTNDJTJGbXhDZWxsJTNFJTBBJTIwJTIwJTIwJTIwJTIwJTIwJTIwJTIwJTNDbXhDZWxsJTIwaWQlM0QlMjIxNyUyMiUyMHZhbHVlJTNEJTIydXNlcklucHV0MSUyMCUzRCUyMHVzZXJJbnB1dDElMjAtJTIwdXNlcklucHV0MiUyMiUyMHN0eWxlJTNEJTIyc2hhcGUlM0RwYXJhbGxlbG9ncmFtJTNCaHRtbCUzRDElM0JzdHJva2VXaWR0aCUzRDIlM0JwZXJpbWV0ZXIlM0RwYXJhbGxlbG9ncmFtUGVyaW1ldGVyJTNCd2hpdGVTcGFjZSUzRHdyYXAlM0Jyb3VuZGVkJTNEMSUzQmFyY1NpemUlM0QxMiUzQnNpemUlM0QwLjIzJTNCJTIyJTIwcGFyZW50JTNEJTIyMSUyMiUyMHZlcnRleCUzRCUyMjElMjIlM0UlMEElMjAlMjAlMjAlMjAlMjAlMjAlMjAlMjAlMjAlMjAlM0NteEdlb21ldHJ5JTIweCUzRCUyMjMwNSUyMiUyMHklM0QlMjI4MTAlMjIlMjB3aWR0aCUzRCUyMjExMCUyMiUyMGhlaWdodCUzRCUyMjUwJTIyJTIwYXMlM0QlMjJnZW9tZXRyeSUyMiUyMCUyRiUzRSUwQSUyMCUyMCUyMCUyMCUyMCUyMCUyMCUyMCUzQyUyRm14Q2VsbCUzRSUwQSUyMCUyMCUyMCUyMCUyMCUyMCUyMCUyMCUzQ214Q2VsbCUyMGlkJTNEJTIyMjMlMjIlMjBzdHlsZSUzRCUyMmVkZ2VTdHlsZSUzRG9ydGhvZ29uYWxFZGdlU3R5bGUlM0JzaGFwZSUzRGNvbm5lY3RvciUzQmN1cnZlZCUzRDAlM0Jyb3VuZGVkJTNEMCUzQmh0bWwlM0QxJTNCZXhpdFglM0QxJTNCZXhpdFklM0QwLjUlM0JleGl0RHglM0QwJTNCZXhpdER5JTNEMCUzQmV4aXRQZXJpbWV0ZXIlM0QwJTNCZW50cnlYJTNEMCUzQmVudHJ5WSUzRDAuNSUzQmVudHJ5RHglM0QwJTNCZW50cnlEeSUzRDAlM0JzdHJva2VDb2xvciUzRGRlZmF1bHQlM0JhbGlnbiUzRGNlbnRlciUzQnZlcnRpY2FsQWxpZ24lM0RtaWRkbGUlM0Jmb250RmFtaWx5JTNESGVsdmV0aWNhJTNCZm9udFNpemUlM0QxMSUzQmZvbnRDb2xvciUzRGRlZmF1bHQlM0JsYWJlbEJhY2tncm91bmRDb2xvciUzRGRlZmF1bHQlM0JlbmRBcnJvdyUzRGNsYXNzaWMlM0IlMjIlMjBwYXJlbnQlM0QlMjIxJTIyJTIwc291cmNlJTNEJTIyMTglMjIlMjB0YXJnZXQlM0QlMjIyMiUyMiUyMGVkZ2UlM0QlMjIxJTIyJTNFJTBBJTIwJTIwJTIwJTIwJTIwJTIwJTIwJTIwJTIwJTIwJTNDbXhHZW9tZXRyeSUyMHJlbGF0aXZlJTNEJTIyMSUyMiUyMGFzJTNEJTIyZ2VvbWV0cnklMjIlMjAlMkYlM0UlMEElMjAlMjAlMjAlMjAlMjAlMjAlMjAlMjAlM0MlMkZteENlbGwlM0UlMEElMjAlMjAlMjAlMjAlMjAlMjAlMjAlMjAlM0NteENlbGwlMjBpZCUzRCUyMjE4JTIyJTIwdmFsdWUlM0QlMjJpZiUyNmFtcCUzQm5ic3AlM0IlMjZsdCUzQmRpdiUyNmd0JTNCdXNlcklucHV0MSUyMCUyNmFtcCUzQmx0JTNCJTIwdXNlcklucHV0MiUyNmx0JTNCJTJGZGl2JTI2Z3QlM0IlMjIlMjBzdHlsZSUzRCUyMnN0cm9rZVdpZHRoJTNEMiUzQmh0bWwlM0QxJTNCc2hhcGUlM0RteGdyYXBoLmZsb3djaGFydC5kZWNpc2lvbiUzQndoaXRlU3BhY2UlM0R3cmFwJTNCZm9udEZhbWlseSUzREhlbHZldGljYSUzQmZvbnRTaXplJTNEMTElM0Jmb250Q29sb3IlM0RkZWZhdWx0JTNCbGFiZWxCYWNrZ3JvdW5kQ29sb3IlM0RkZWZhdWx0JTNCJTIyJTIwcGFyZW50JTNEJTIyMSUyMiUyMHZlcnRleCUzRCUyMjElMjIlM0UlMEElMjAlMjAlMjAlMjAlMjAlMjAlMjAlMjAlMjAlMjAlM0NteEdlb21ldHJ5JTIweCUzRCUyMjMwMi41JTIyJTIweSUzRCUyMjkyMCUyMiUyMHdpZHRoJTNEJTIyMTE1JTIyJTIwaGVpZ2h0JTNEJTIyMTIwJTIyJTIwYXMlM0QlMjJnZW9tZXRyeSUyMiUyMCUyRiUzRSUwQSUyMCUyMCUyMCUyMCUyMCUyMCUyMCUyMCUzQyUyRm14Q2VsbCUzRSUwQSUyMCUyMCUyMCUyMCUyMCUyMCUyMCUyMCUzQ214Q2VsbCUyMGlkJTNEJTIyMTklMjIlMjBzdHlsZSUzRCUyMmVkZ2VTdHlsZSUzRG9ydGhvZ29uYWxFZGdlU3R5bGUlM0JzaGFwZSUzRGNvbm5lY3RvciUzQmN1cnZlZCUzRDAlM0Jyb3VuZGVkJTNEMCUzQmh0bWwlM0QxJTNCZXhpdFglM0QwLjUlM0JleGl0WSUzRDElM0JleGl0RHglM0QwJTNCZXhpdER5JTNEMCUzQmVudHJ5WCUzRDAuNSUzQmVudHJ5WSUzRDAlM0JlbnRyeUR4JTNEMCUzQmVudHJ5RHklM0QwJTNCZW50cnlQZXJpbWV0ZXIlM0QwJTNCc3Ryb2tlQ29sb3IlM0RkZWZhdWx0JTNCYWxpZ24lM0RjZW50ZXIlM0J2ZXJ0aWNhbEFsaWduJTNEbWlkZGxlJTNCZm9udEZhbWlseSUzREhlbHZldGljYSUzQmZvbnRTaXplJTNEMTElM0Jmb250Q29sb3IlM0RkZWZhdWx0JTNCbGFiZWxCYWNrZ3JvdW5kQ29sb3IlM0RkZWZhdWx0JTNCZW5kQXJyb3clM0RjbGFzc2ljJTNCJTIyJTIwcGFyZW50JTNEJTIyMSUyMiUyMHNvdXJjZSUzRCUyMjE3JTIyJTIwdGFyZ2V0JTNEJTIyMTglMjIlMjBlZGdlJTNEJTIyMSUyMiUzRSUwQSUyMCUyMCUyMCUyMCUyMCUyMCUyMCUyMCUyMCUyMCUzQ214R2VvbWV0cnklMjByZWxhdGl2ZSUzRCUyMjElMjIlMjBhcyUzRCUyMmdlb21ldHJ5JTIyJTIwJTJGJTNFJTBBJTIwJTIwJTIwJTIwJTIwJTIwJTIwJTIwJTNDJTJGbXhDZWxsJTNFJTBBJTIwJTIwJTIwJTIwJTIwJTIwJTIwJTIwJTNDbXhDZWxsJTIwaWQlM0QlMjIyMCUyMiUyMHN0eWxlJTNEJTIyZWRnZVN0eWxlJTNEb3J0aG9nb25hbEVkZ2VTdHlsZSUzQnNoYXBlJTNEY29ubmVjdG9yJTNCY3VydmVkJTNEMCUzQnJvdW5kZWQlM0QwJTNCaHRtbCUzRDElM0JleGl0WCUzRDAlM0JleGl0WSUzRDAuNSUzQmV4aXREeCUzRDAlM0JleGl0RHklM0QwJTNCZXhpdFBlcmltZXRlciUzRDAlM0JlbnRyeVglM0QwJTNCZW50cnlZJTNEMC41JTNCZW50cnlEeCUzRDAlM0JlbnRyeUR5JTNEMCUzQmVudHJ5UGVyaW1ldGVyJTNEMCUzQnN0cm9rZUNvbG9yJTNEZGVmYXVsdCUzQmFsaWduJTNEY2VudGVyJTNCdmVydGljYWxBbGlnbiUzRG1pZGRsZSUzQmZvbnRGYW1pbHklM0RIZWx2ZXRpY2ElM0Jmb250U2l6ZSUzRDExJTNCZm9udENvbG9yJTNEZGVmYXVsdCUzQmxhYmVsQmFja2dyb3VuZENvbG9yJTNEZGVmYXVsdCUzQmVuZEFycm93JTNEY2xhc3NpYyUzQiUyMiUyMHBhcmVudCUzRCUyMjElMjIlMjBzb3VyY2UlM0QlMjIxOCUyMiUyMHRhcmdldCUzRCUyMjYlMjIlMjBlZGdlJTNEJTIyMSUyMiUzRSUwQSUyMCUyMCUyMCUyMCUyMCUyMCUyMCUyMCUyMCUyMCUzQ214R2VvbWV0cnklMjByZWxhdGl2ZSUzRCUyMjElMjIlMjBhcyUzRCUyMmdlb21ldHJ5JTIyJTNFJTBBJTIwJTIwJTIwJTIwJTIwJTIwJTIwJTIwJTIwJTIwJTIwJTIwJTNDQXJyYXklMjBhcyUzRCUyMnBvaW50cyUyMiUzRSUwQSUyMCUyMCUyMCUyMCUyMCUyMCUyMCUyMCUyMCUyMCUyMCUyMCUyMCUyMCUzQ214UG9pbnQlMjB4JTNEJTIyMjEwJTIyJTIweSUzRCUyMjk4MCUyMiUyMCUyRiUzRSUwQSUyMCUyMCUyMCUyMCUyMCUyMCUyMCUyMCUyMCUyMCUyMCUyMCUyMCUyMCUzQ214UG9pbnQlMjB4JTNEJTIyMjEwJTIyJTIweSUzRCUyMjU3MCUyMiUyMCUyRiUzRSUwQSUyMCUyMCUyMCUyMCUyMCUyMCUyMCUyMCUyMCUyMCUyMCUyMCUzQyUyRkFycmF5JTNFJTBBJTIwJTIwJTIwJTIwJTIwJTIwJTIwJTIwJTIwJTIwJTNDJTJGbXhHZW9tZXRyeSUzRSUwQSUyMCUyMCUyMCUyMCUyMCUyMCUyMCUyMCUzQyUyRm14Q2VsbCUzRSUwQSUyMCUyMCUyMCUyMCUyMCUyMCUyMCUyMCUzQ214Q2VsbCUyMGlkJTNEJTIyMjElMjIlMjBzdHlsZSUzRCUyMmVkZ2VTdHlsZSUzRG9ydGhvZ29uYWxFZGdlU3R5bGUlM0JzaGFwZSUzRGNvbm5lY3RvciUzQmN1cnZlZCUzRDAlM0Jyb3VuZGVkJTNEMCUzQmh0bWwlM0QxJTNCZXhpdFglM0QxJTNCZXhpdFklM0QwLjUlM0JleGl0RHglM0QwJTNCZXhpdER5JTNEMCUzQmV4aXRQZXJpbWV0ZXIlM0QwJTNCZW50cnlYJTNEMC41JTNCZW50cnlZJTNEMCUzQmVudHJ5RHglM0QwJTNCZW50cnlEeSUzRDAlM0JlbnRyeVBlcmltZXRlciUzRDAlM0JzdHJva2VDb2xvciUzRGRlZmF1bHQlM0JhbGlnbiUzRGNlbnRlciUzQnZlcnRpY2FsQWxpZ24lM0RtaWRkbGUlM0Jmb250RmFtaWx5JTNESGVsdmV0aWNhJTNCZm9udFNpemUlM0QxMSUzQmZvbnRDb2xvciUzRGRlZmF1bHQlM0JsYWJlbEJhY2tncm91bmRDb2xvciUzRGRlZmF1bHQlM0JlbmRBcnJvdyUzRGNsYXNzaWMlM0IlMjIlMjBwYXJlbnQlM0QlMjIxJTIyJTIwc291cmNlJTNEJTIyNiUyMiUyMHRhcmdldCUzRCUyMjMlMjIlMjBlZGdlJTNEJTIyMSUyMiUzRSUwQSUyMCUyMCUyMCUyMCUyMCUyMCUyMCUyMCUyMCUyMCUzQ214R2VvbWV0cnklMjByZWxhdGl2ZSUzRCUyMjElMjIlMjBhcyUzRCUyMmdlb21ldHJ5JTIyJTIwJTJGJTNFJTBBJTIwJTIwJTIwJTIwJTIwJTIwJTIwJTIwJTNDJTJGbXhDZWxsJTNFJTBBJTIwJTIwJTIwJTIwJTIwJTIwJTIwJTIwJTNDbXhDZWxsJTIwaWQlM0QlMjIyMiUyMiUyMHZhbHVlJTNEJTIyYnJlYWslMjIlMjBzdHlsZSUzRCUyMnJvdW5kZWQlM0QxJTNCd2hpdGVTcGFjZSUzRHdyYXAlM0JodG1sJTNEMSUzQmFic29sdXRlQXJjU2l6ZSUzRDElM0JhcmNTaXplJTNEMTQlM0JzdHJva2VXaWR0aCUzRDIlM0Jmb250RmFtaWx5JTNESGVsdmV0aWNhJTNCZm9udFNpemUlM0QxMSUzQmZvbnRDb2xvciUzRGRlZmF1bHQlM0JsYWJlbEJhY2tncm91bmRDb2xvciUzRGRlZmF1bHQlM0IlMjIlMjBwYXJlbnQlM0QlMjIxJTIyJTIwdmVydGV4JTNEJTIyMSUyMiUzRSUwQSUyMCUyMCUyMCUyMCUyMCUyMCUyMCUyMCUyMCUyMCUzQ214R2VvbWV0cnklMjB4JTNEJTIyNDkwJTIyJTIweSUzRCUyMjc2MCUyMiUyMHdpZHRoJTNEJTIyMTAwJTIyJTIwaGVpZ2h0JTNEJTIyNTAlMjIlMjBhcyUzRCUyMmdlb21ldHJ5JTIyJTIwJTJGJTNFJTBBJTIwJTIwJTIwJTIwJTIwJTIwJTIwJTIwJTNDJTJGbXhDZWxsJTNFJTBBJTIwJTIwJTIwJTIwJTIwJTIwJTIwJTIwJTNDbXhDZWxsJTIwaWQlM0QlMjIyNCUyMiUyMHN0eWxlJTNEJTIyZWRnZVN0eWxlJTNEb3J0aG9nb25hbEVkZ2VTdHlsZSUzQnNoYXBlJTNEY29ubmVjdG9yJTNCY3VydmVkJTNEMCUzQnJvdW5kZWQlM0QwJTNCaHRtbCUzRDElM0JleGl0WCUzRDAuNSUzQmV4aXRZJTNEMCUzQmV4aXREeCUzRDAlM0JleGl0RHklM0QwJTNCZW50cnlYJTNEMC41JTNCZW50cnlZJTNEMSUzQmVudHJ5RHglM0QwJTNCZW50cnlEeSUzRDAlM0JlbnRyeVBlcmltZXRlciUzRDAlM0JzdHJva2VDb2xvciUzRGRlZmF1bHQlM0JhbGlnbiUzRGNlbnRlciUzQnZlcnRpY2FsQWxpZ24lM0RtaWRkbGUlM0Jmb250RmFtaWx5JTNESGVsdmV0aWNhJTNCZm9udFNpemUlM0QxMSUzQmZvbnRDb2xvciUzRGRlZmF1bHQlM0JsYWJlbEJhY2tncm91bmRDb2xvciUzRGRlZmF1bHQlM0JlbmRBcnJvdyUzRGNsYXNzaWMlM0IlMjIlMjBwYXJlbnQlM0QlMjIxJTIyJTIwc291cmNlJTNEJTIyMjIlMjIlMjB0YXJnZXQlM0QlMjIzJTIyJTIwZWRnZSUzRCUyMjElMjIlM0UlMEElMjAlMjAlMjAlMjAlMjAlMjAlMjAlMjAlMjAlMjAlM0NteEdlb21ldHJ5JTIwcmVsYXRpdmUlM0QlMjIxJTIyJTIwYXMlM0QlMjJnZW9tZXRyeSUyMiUyMCUyRiUzRSUwQSUyMCUyMCUyMCUyMCUyMCUyMCUyMCUyMCUzQyUyRm14Q2VsbCUzRSUwQSUyMCUyMCUyMCUyMCUyMCUyMCUyMCUyMCUzQ214Q2VsbCUyMGlkJTNEJTIyMjUlMjIlMjB2YWx1ZSUzRCUyMm5vJTIyJTIwc3R5bGUlM0QlMjJ0ZXh0JTNCaHRtbCUzRDElM0JhbGlnbiUzRGNlbnRlciUzQnZlcnRpY2FsQWxpZ24lM0RtaWRkbGUlM0JyZXNpemFibGUlM0QwJTNCcG9pbnRzJTNEJTVCJTVEJTNCYXV0b3NpemUlM0QxJTNCc3Ryb2tlQ29sb3IlM0Rub25lJTNCZmlsbENvbG9yJTNEbm9uZSUzQmZvbnRGYW1pbHklM0RIZWx2ZXRpY2ElM0Jmb250U2l6ZSUzRDExJTNCZm9udENvbG9yJTNEZGVmYXVsdCUzQmxhYmVsQmFja2dyb3VuZENvbG9yJTNEZGVmYXVsdCUzQiUyMiUyMHBhcmVudCUzRCUyMjElMjIlMjB2ZXJ0ZXglM0QlMjIxJTIyJTNFJTBBJTIwJTIwJTIwJTIwJTIwJTIwJTIwJTIwJTIwJTIwJTNDbXhHZW9tZXRyeSUyMHglM0QlMjI0NDAlMjIlMjB5JTNEJTIyNTY4JTIyJTIwd2lkdGglM0QlMjI0MCUyMiUyMGhlaWdodCUzRCUyMjMwJTIyJTIwYXMlM0QlMjJnZW9tZXRyeSUyMiUyMCUyRiUzRSUwQSUyMCUyMCUyMCUyMCUyMCUyMCUyMCUyMCUzQyUyRm14Q2VsbCUzRSUwQSUyMCUyMCUyMCUyMCUyMCUyMCUyMCUyMCUzQ214Q2VsbCUyMGlkJTNEJTIyMjYlMjIlMjB2YWx1ZSUzRCUyMnllcyUyMiUyMHN0eWxlJTNEJTIydGV4dCUzQmh0bWwlM0QxJTNCYWxpZ24lM0RjZW50ZXIlM0J2ZXJ0aWNhbEFsaWduJTNEbWlkZGxlJTNCcmVzaXphYmxlJTNEMCUzQnBvaW50cyUzRCU1QiU1RCUzQmF1dG9zaXplJTNEMSUzQnN0cm9rZUNvbG9yJTNEbm9uZSUzQmZpbGxDb2xvciUzRG5vbmUlM0Jmb250RmFtaWx5JTNESGVsdmV0aWNhJTNCZm9udFNpemUlM0QxMSUzQmZvbnRDb2xvciUzRGRlZmF1bHQlM0JsYWJlbEJhY2tncm91bmRDb2xvciUzRGRlZmF1bHQlM0IlMjIlMjBwYXJlbnQlM0QlMjIxJTIyJTIwdmVydGV4JTNEJTIyMSUyMiUzRSUwQSUyMCUyMCUyMCUyMCUyMCUyMCUyMCUyMCUyMCUyMCUzQ214R2VvbWV0cnklMjB4JTNEJTIyMzYwJTIyJTIweSUzRCUyMjYzMCUyMiUyMHdpZHRoJTNEJTIyNDAlMjIlMjBoZWlnaHQlM0QlMjIzMCUyMiUyMGFzJTNEJTIyZ2VvbWV0cnklMjIlMjAlMkYlM0UlMEElMjAlMjAlMjAlMjAlMjAlMjAlMjAlMjAlM0MlMkZteENlbGwlM0UlMEElMjAlMjAlMjAlMjAlMjAlMjAlMjAlMjAlM0NteENlbGwlMjBpZCUzRCUyMjI3JTIyJTIwdmFsdWUlM0QlMjJ5ZXMlMjIlMjBzdHlsZSUzRCUyMnRleHQlM0JodG1sJTNEMSUzQmFsaWduJTNEY2VudGVyJTNCdmVydGljYWxBbGlnbiUzRG1pZGRsZSUzQnJlc2l6YWJsZSUzRDAlM0Jwb2ludHMlM0QlNUIlNUQlM0JhdXRvc2l6ZSUzRDElM0JzdHJva2VDb2xvciUzRG5vbmUlM0JmaWxsQ29sb3IlM0Rub25lJTNCZm9udEZhbWlseSUzREhlbHZldGljYSUzQmZvbnRTaXplJTNEMTElM0Jmb250Q29sb3IlM0RkZWZhdWx0JTNCbGFiZWxCYWNrZ3JvdW5kQ29sb3IlM0RkZWZhdWx0JTNCJTIyJTIwcGFyZW50JTNEJTIyMSUyMiUyMHZlcnRleCUzRCUyMjElMjIlM0UlMEElMjAlMjAlMjAlMjAlMjAlMjAlMjAlMjAlMjAlMjAlM0NteEdlb21ldHJ5JTIweCUzRCUyMjQxNy41JTIyJTIweSUzRCUyMjg0OCUyMiUyMHdpZHRoJTNEJTIyNDAlMjIlMjBoZWlnaHQlM0QlMjIzMCUyMiUyMGFzJTNEJTIyZ2VvbWV0cnklMjIlMjAlMkYlM0UlMEElMjAlMjAlMjAlMjAlMjAlMjAlMjAlMjAlM0MlMkZteENlbGwlM0UlMEElMjAlMjAlMjAlMjAlMjAlMjAlMjAlMjAlM0NteENlbGwlMjBpZCUzRCUyMjI4JTIyJTIwdmFsdWUlM0QlMjJubyUyMiUyMHN0eWxlJTNEJTIydGV4dCUzQmh0bWwlM0QxJTNCYWxpZ24lM0RjZW50ZXIlM0J2ZXJ0aWNhbEFsaWduJTNEbWlkZGxlJTNCcmVzaXphYmxlJTNEMCUzQnBvaW50cyUzRCU1QiU1RCUzQmF1dG9zaXplJTNEMSUzQnN0cm9rZUNvbG9yJTNEbm9uZSUzQmZpbGxDb2xvciUzRG5vbmUlM0Jmb250RmFtaWx5JTNESGVsdmV0aWNhJTNCZm9udFNpemUlM0QxMSUzQmZvbnRDb2xvciUzRGRlZmF1bHQlM0JsYWJlbEJhY2tncm91bmRDb2xvciUzRGRlZmF1bHQlM0IlMjIlMjBwYXJlbnQlM0QlMjIxJTIyJTIwdmVydGV4JTNEJTIyMSUyMiUzRSUwQSUyMCUyMCUyMCUyMCUyMCUyMCUyMCUyMCUyMCUyMCUzQ214R2VvbWV0cnklMjB4JTNEJTIyMjUwJTIyJTIweSUzRCUyMjg0OCUyMiUyMHdpZHRoJTNEJTIyNDAlMjIlMjBoZWlnaHQlM0QlMjIzMCUyMiUyMGFzJTNEJTIyZ2VvbWV0cnklMjIlMjAlMkYlM0UlMEElMjAlMjAlMjAlMjAlMjAlMjAlMjAlMjAlM0MlMkZteENlbGwlM0UlMEElMjAlMjAlMjAlMjAlMjAlMjAlMjAlMjAlM0NteENlbGwlMjBpZCUzRCUyMjMzJTIyJTIwc3R5bGUlM0QlMjJlZGdlU3R5bGUlM0Rub25lJTNCaHRtbCUzRDElM0JleGl0WCUzRDAuNSUzQmV4aXRZJTNEMSUzQmV4aXREeCUzRDAlM0JleGl0RHklM0QwJTNCZW50cnlYJTNEMC41JTNCZW50cnlZJTNEMCUzQmVudHJ5RHglM0QwJTNCZW50cnlEeSUzRDAlM0IlMjIlMjBwYXJlbnQlM0QlMjIxJTIyJTIwc291cmNlJTNEJTIyMjklMjIlMjB0YXJnZXQlM0QlMjIzMiUyMiUyMGVkZ2UlM0QlMjIxJTIyJTNFJTBBJTIwJTIwJTIwJTIwJTIwJTIwJTIwJTIwJTIwJTIwJTNDbXhHZW9tZXRyeSUyMHJlbGF0aXZlJTNEJTIyMSUyMiUyMGFzJTNEJTIyZ2VvbWV0cnklMjIlMjAlMkYlM0UlMEElMjAlMjAlMjAlMjAlMjAlMjAlMjAlMjAlM0MlMkZteENlbGwlM0UlMEElMjAlMjAlMjAlMjAlMjAlMjAlMjAlMjAlM0NteENlbGwlMjBpZCUzRCUyMjI5JTIyJTIwdmFsdWUlM0QlMjJpbnB1dCUyNmFtcCUzQm5ic3AlM0IlMjZsdCUzQmRpdiUyNmd0JTNCdXNlcklucHV0MiUyNmx0JTNCJTJGZGl2JTI2Z3QlM0IlMjIlMjBzdHlsZSUzRCUyMnNoYXBlJTNEcGFyYWxsZWxvZ3JhbSUzQmh0bWwlM0QxJTNCc3Ryb2tlV2lkdGglM0QyJTNCcGVyaW1ldGVyJTNEcGFyYWxsZWxvZ3JhbVBlcmltZXRlciUzQndoaXRlU3BhY2UlM0R3cmFwJTNCcm91bmRlZCUzRDElM0JhcmNTaXplJTNEMTIlM0JzaXplJTNEMC4yMyUzQiUyMiUyMHBhcmVudCUzRCUyMjElMjIlMjB2ZXJ0ZXglM0QlMjIxJTIyJTNFJTBBJTIwJTIwJTIwJTIwJTIwJTIwJTIwJTIwJTIwJTIwJTNDbXhHZW9tZXRyeSUyMHglM0QlMjIzMDUlMjIlMjB5JTNEJTIyMjAwJTIyJTIwd2lkdGglM0QlMjIxMTAlMjIlMjBoZWlnaHQlM0QlMjI1MCUyMiUyMGFzJTNEJTIyZ2VvbWV0cnklMjIlMjAlMkYlM0UlMEElMjAlMjAlMjAlMjAlMjAlMjAlMjAlMjAlM0MlMkZteENlbGwlM0UlMEElMjAlMjAlMjAlMjAlMjAlMjAlMjAlMjAlM0NteENlbGwlMjBpZCUzRCUyMjM0JTIyJTIwc3R5bGUlM0QlMjJlZGdlU3R5bGUlM0Rub25lJTNCaHRtbCUzRDElM0JleGl0WCUzRDAuNSUzQmV4aXRZJTNEMSUzQmV4aXREeCUzRDAlM0JleGl0RHklM0QwJTNCZW50cnlYJTNEMC41JTNCZW50cnlZJTNEMCUzQmVudHJ5RHglM0QwJTNCZW50cnlEeSUzRDAlM0IlMjIlMjBwYXJlbnQlM0QlMjIxJTIyJTIwc291cmNlJTNEJTIyMzIlMjIlMjB0YXJnZXQlM0QlMjI0JTIyJTIwZWRnZSUzRCUyMjElMjIlM0UlMEElMjAlMjAlMjAlMjAlMjAlMjAlMjAlMjAlMjAlMjAlM0NteEdlb21ldHJ5JTIwcmVsYXRpdmUlM0QlMjIxJTIyJTIwYXMlM0QlMjJnZW9tZXRyeSUyMiUyMCUyRiUzRSUwQSUyMCUyMCUyMCUyMCUyMCUyMCUyMCUyMCUzQyUyRm14Q2VsbCUzRSUwQSUyMCUyMCUyMCUyMCUyMCUyMCUyMCUyMCUzQ214Q2VsbCUyMGlkJTNEJTIyMzIlMjIlMjB2YWx1ZSUzRCUyMmdldCUyMHVzZXJJbnB1dDElMjIlMjBzdHlsZSUzRCUyMnNoYXBlJTNEcGFyYWxsZWxvZ3JhbSUzQmh0bWwlM0QxJTNCc3Ryb2tlV2lkdGglM0QyJTNCcGVyaW1ldGVyJTNEcGFyYWxsZWxvZ3JhbVBlcmltZXRlciUzQndoaXRlU3BhY2UlM0R3cmFwJTNCcm91bmRlZCUzRDElM0JhcmNTaXplJTNEMTIlM0JzaXplJTNEMC4yMyUzQiUyMiUyMHBhcmVudCUzRCUyMjElMjIlMjB2ZXJ0ZXglM0QlMjIxJTIyJTNFJTBBJTIwJTIwJTIwJTIwJTIwJTIwJTIwJTIwJTIwJTIwJTNDbXhHZW9tZXRyeSUyMHglM0QlMjIzMDUlMjIlMjB5JTNEJTIyMjgwJTIyJTIwd2lkdGglM0QlMjIxMTAlMjIlMjBoZWlnaHQlM0QlMjI1MCUyMiUyMGFzJTNEJTIyZ2VvbWV0cnklMjIlMjAlMkYlM0UlMEElMjAlMjAlMjAlMjAlMjAlMjAlMjAlMjAlM0MlMkZteENlbGwlM0UlMEElMjAlMjAlMjAlMjAlMjAlMjAlMjAlMjAlM0NteENlbGwlMjBpZCUzRCUyMjM2JTIyJTIwc3R5bGUlM0QlMjJlZGdlU3R5bGUlM0Rub25lJTNCaHRtbCUzRDElM0JleGl0WCUzRDAuNSUzQmV4aXRZJTNEMSUzQmV4aXREeCUzRDAlM0JleGl0RHklM0QwJTNCZW50cnlYJTNEMC41JTNCZW50cnlZJTNEMCUzQmVudHJ5RHglM0QwJTNCZW50cnlEeSUzRDAlM0IlMjIlMjBlZGdlJTNEJTIyMSUyMiUyMHBhcmVudCUzRCUyMjElMjIlMjBzb3VyY2UlM0QlMjIzNSUyMiUyMHRhcmdldCUzRCUyMjE3JTIyJTNFJTBBJTIwJTIwJTIwJTIwJTIwJTIwJTIwJTIwJTIwJTIwJTNDbXhHZW9tZXRyeSUyMHJlbGF0aXZlJTNEJTIyMSUyMiUyMGFzJTNEJTIyZ2VvbWV0cnklMjIlMjAlMkYlM0UlMEElMjAlMjAlMjAlMjAlMjAlMjAlMjAlMjAlM0MlMkZteENlbGwlM0UlMEElMjAlMjAlMjAlMjAlMjAlMjAlMjAlMjAlM0NteENlbGwlMjBpZCUzRCUyMjM1JTIyJTIwdmFsdWUlM0QlMjJudW1iZXIlMkIlMkIlMjIlMjBzdHlsZSUzRCUyMnNoYXBlJTNEcGFyYWxsZWxvZ3JhbSUzQmh0bWwlM0QxJTNCc3Ryb2tlV2lkdGglM0QyJTNCcGVyaW1ldGVyJTNEcGFyYWxsZWxvZ3JhbVBlcmltZXRlciUzQndoaXRlU3BhY2UlM0R3cmFwJTNCcm91bmRlZCUzRDElM0JhcmNTaXplJTNEMTIlM0JzaXplJTNEMC4yMyUzQiUyMiUyMHZlcnRleCUzRCUyMjElMjIlMjBwYXJlbnQlM0QlMjIxJTIyJTNFJTBBJTIwJTIwJTIwJTIwJTIwJTIwJTIwJTIwJTIwJTIwJTNDbXhHZW9tZXRyeSUyMHglM0QlMjIzMDUlMjIlMjB5JTNEJTIyNjkwJTIyJTIwd2lkdGglM0QlMjIxMTAlMjIlMjBoZWlnaHQlM0QlMjI1MCUyMiUyMGFzJTNEJTIyZ2VvbWV0cnklMjIlMjAlMkYlM0UlMEElMjAlMjAlMjAlMjAlMjAlMjAlMjAlMjAlM0MlMkZteENlbGwlM0UlMEElMjAlMjAlMjAlMjAlMjAlMjAlM0MlMkZyb290JTNFJTBBJTIwJTIwJTIwJTIwJTNDJTJGbXhHcmFwaE1vZGVsJTNFJTBBJTIwJTIwJTNDJTJGZGlhZ3JhbSUzRSUwQSUzQyUyRm14ZmlsZSUzRSUwQagiJhMAACAASURBVHhe7L0NlFbVeff910FdARHiyqOF9oHBVRdCYq0vZEW7RAe/VjCA0JBK1MDwQKsVgn1CXofqKwP2xYIraP2AJi08fBQMNvggH0qXURmBVclClkUa0GWXfDwtVJI3KqhZGtB3rpP7TM/czs3cH/ucs8+5f3utScaZs6997d+17/lz7b3P3meIAoHPE+gtqV/R13kegzou6WjR1wmP/cU1CEAgZgJnxGwf89kgMFzSTZK+IekSST4LWblETfDekPSspOckvVpuRZ6DAASyTwBxy34Mq+2BiVn4NShqpFevXurXr1+nry9+8YvVthN7vXfffVdHjx7t9PXhhx8Wt3ugIHImdPZFgQAEckwAcctxcEt0baqk2ZJ+P/z9wIEDddNNNwVfI0aMUJ8+fTJP5f3339f27dv13HPPBV+HDh2K9unfJC2QtCzzHaUDEIBAlwQQt/oZGBMKojbMujx8+PAOQfva176Wewo/+9nPOoTu1Vc7Zih3F0RuXe4B0EEI1BkBxC3/Ab+xIGojrauDBw/W7Nmz1dzcnP+el+jhihUrtGDBAr355pvhE1sLIvd83UKh4xDIGQHELWcBLerOPZIW2s9sDa2lpUV33313vntcQe8ee+yxQORsva5QWiQ9VIEJHoUABDwlgLh5GhgHbi2VZOtram1t1X333aezzjrLgdl8mfjNb36j+fPna968eWHHbB1uWr56SW8gUH8EELf8xdx2Pq6UNMLEzKbgbr311vz10nGPnnzyyWCq1sRO0nZJk9u/bIclBQIQyCABxC2DQTuNy03t76mtlXThl7/85UDYbOMIpTwCttFk8uTJ2rdvn1V4p/09uYmS2sqrzVMQgIBPBBA3n6JRmy8XFTKO/uPGjdPKlSt13nl5eBe7NiiV1j5+/HggcM8884xVPWIZsKS3K7XD8xCAQLoEELd0+btqvaEgbFeOHTtWGzZscGW3bu3cfPPN2rhxo/X/lYLAnapbGHQcAhkkgLhlMGhduPxjm0K77LLLgheXe/e2oyEptRA4ceJE8EL7nj17zIxN9X67FnvUhQAEkiWAuCXLO47W7KSNlr59+wbC9pWvfCWONurS5s9//nNdddVVeu+996z/9kqFnexCgQAEMkAAcctAkE7j4jhJ6+33zz77bHDiCMUtATu66xvfsPOkgzJeUrAYR4EABPwmgLj5HZ/uvLNzpIb94Ac/0KxZs7p7lt9XSWDRokX6/ve/b7XtuC62n1bJkWoQSJIA4pYkbbdt3dm+5f9vL7nkEu3fv9+tZax9jsCQIUP0xht2g47+XNIPQQQBCPhNAHHzOz6lvDuroaHh8KlTp35n9erVuu2227LZiwx5vWbNGt1+++1qaGj4z1OnTg2QFLztTYEABPwkgLj5GZfuvLKzouaMHDlSL730UnfP8ntHBK699lpt3WpnLOsBO9XMkVnMQAACMRBA3GKAGrPJvpJ+KanhxRdflP3BpSRDwP4hcd1111lj9s7blyQF2ygpEICAfwQQN/9i0p1H35G06oYbbtDzz3NDS3ewXP/+xhtv1E9/+lMzO0nSP7i2jz0IQMANAcTNDcckrfyjpG/ZdS3f/e53k2yXtiQ9/vjjmjlzprH4iaQ/AQoEIOAnAcTNz7iU8qrHmWee+eGnn3569oEDB9TY2Jgt73Pg7cGDBzVo0CCdeeaZn3z66ae9JJ3MQbfoAgRyRwBxy1ZI7SXi/33llVfqn//5n7PleY68/aM/+iO98oodOak/Dl+iz1H36AoEckEAcctWGP+XpCkPPvig/vIv/zJbnufI27/+67/Wvffeaz1aLul/5KhrdAUCuSGAuGUrlIcl/fe9e/dyhmSKcfvXf/1XXXrppebB/5Fk77xRIAABzwggbp4FpBt3bH2n4ZNPPpHdsu1TsTvQVq1a1eGSXRczZsyY4L/td0OHDlVLS0tFLldbr6JGqnjYbus+++yzraa9EtCjChNUgQAEYiaAuMUM2KH5fnZ55gUXXKB33rFLov0pJkKHDh3S5s2bde6552r37t26+uqrtXbt2kDgqhWpauslQebCCy/UsWPHrKn+ko4m0SZtQAAC5RNA3MpnlfaTwyS9+od/+Id67bXX0valo/0PPvhAo0eP1qhRozplZiZMVixjmz37tzfFLFiwIHhm4cKFHT/r2bOntm3bpsGDBwd23n33Xb3++uuBINpt4tF63nRa0uWXX65/+Zd/MZfsIGU7UJkCAQh4RABx8ygY3bhic3wb7Vobu97GpxKK1aRJkzoEKepfNAPbtGmTZsyYoZ07d6pfv36BiFlZvHhxIG4DBw7ssOFz5mbX4Nh1OJLGtt/MsMmneOALBCAgIW7ZGQV32Gn006ZN09///d975/XRo0d1xRVX6PBh2/MiRYXudCJlwrhv374OcYtmgD6L25/+6Z9q6dKl1lW7neFH3gUEhyBQ5wQQt+wMADuod+6cOXM0b56dm+xvKZ6qjIpU+LuXX365owMmhGHmZvfS1boRJQkyra2teuABOz9ZcyX5HZAkgNAGBDwjgLh5FpDTuONl5mYZ27e//W39+Mc/DqYZwxJmZLZuFhU3+/mWLVs6Np8UZ25ZETcyt+x8cPC0PgkgbtmJu7drbuG6WbgBJJyivOuuu4INJKXE7cSJE8FUZlNTU+YyN9bcsvPBwdP6JIC4ZSfuXu6WDPEVv+cW7oy034cbTuxnNgUZrs0NGDAgOGnFXhl46qmndMsttyiauUXrVfqOXNxhZbdk3ISxD4HaCCButfFLsra377klCcGXtnjPzZdI4AcEuiaAuGVrZHh7Qkm2MNbmLSeU1MaP2hBIggDilgRld21wtqQ7llVb4mzJqtFREQKJEUDcEkPtpCFuBXCCsTYj3ApQGz9qQyAJAohbEpTdtcF9bu5YVm2J+9yqRkdFCCRGAHFLDLWThriJ2wnG6o1wE3f17KgJgSQJIG5J0nbT1j9K+tZjjz2m7373u24sYqVsAo8//rhmzpxpz/9E0p+UXZEHIQCBRAkgbonidtLYdyStuuGGG/T88887MYiR8gnceOON+ulPf2oVJkn6h/Jr8iQEIJAkAcQtSdpu2uor6Zd2aemLL76oa6+91o1VrHRL4KWXXtJ1111nz9klpV+S9F63lXgAAhBIhQDilgr2mhu1g3rnjBw5UvYHl5IMAfuHxNatW60xOzHZDrKmQAACnhJA3DwNTDdundXQ0HD41KlTv7N69Wrddttt2exFhrxes2aNbr/9djU0NPznqVOnBkj6TYbcx1UI1B0BxC27Ibd7xP72kksu0f79+7Pbi4x4PmTIEL3xxhvm7Z/bvXoZcRs3IVC3BBC3bIf+1fZboIf94Ac/CA4cpsRDYNGiRfr+979vxndLGh5PK1iFAARcEkDcXNJM3tY4Seut2WeffVY33XRT8h7kvMXnnntOdr1NodhL9M/kvMt0DwK5IIC4ZT+MCyS19O3bVzt27NCXv/zl7PfIkx7YGZIjRozQe+8FmyIXSprtiWu4AQEIdEMAccvHEPmxpImXXXaZtm/frt69e+ejVyn2wi5SNWHbs2ePebFW0rdTdIemIQCBCgkgbhUC8/TxBknbJV05duxYbdiwwVM3s+PWzTffrI0bN5rDr0gaUXi3LTsdwFMI1DkBxC0/A+CigsD1HzdunFauXKnzzjsvP71LqCfHjx+X3Sr+zDPB0tqRgrC9nVDzNAMBCDgigLg5AumJmabCFNqFQ4cODQRu+HA295Ubm1dffVXNzc36+c9/blXesaleSW3l1uc5CEDAHwKImz+xcOXJIEkrLeM466yztGLFCt16662ubOfWzpNPPhkIm92yXciAJ0s6kNsO0zEI5JwA4pbfAC+VNNW619raqvvuu08mdpTOBEzM5s+fr3nz7ESzoCyTNA1OEIBAtgkgbtmOX3fe31PYwq5+/fpp9uzZ4XUt3dWri98/+uijWrhwoY4ePRr2t0XSQ3XReToJgZwTQNxyHmBJNxbezxppXR08eHAgcjYFV6/FpmoXLFigN998M0RgpyHb+4LcIVSvg4J+544A4pa7kJbs0ISCyA2zJ2yjiZ1oYl9f+9rXck/hZz/7mey0EfuyjSOFYsdpmaityz0AOgiBOiOAuNVZwAvrcHbSxu+HXR84cGCH0NmLy3369Mk8lffffz94oT0UtEOHDkX79G8FUbP1NQoEIJBDAohbDoNaZpfsIMrwy3ZYdpRevXoFa3TRry9+8Ytlmk3+sXfffTdYN4t+ffjhh8WO2M7H5yJfyTtKixCAQGIEELfEUHvdkL0MZ0JnJwRfIikPb38fb39Pze6oebYgaB1zkV5HAucgAAEnBBA3JxhzZ8QOp+xX9OVS8Oa2E7MvV8WEzLY8Rr9OuDKOHQhAIHsEELfsxSwPHn8mibGXh0jSBwh4SoA/MJ4GJuduIW45DzDdg0DaBBC3tCNQn+0jbvUZd3oNgcQIIG6JoaahCAHEjeEAAQjESgBxixUvxksQQNwYGhCAQKwEELdY8WIccWMMQAACaRBA3NKgTptkbowBCEAgVgKIW6x4MU7mxhiAAATSIIC4pUGdNsncGAMQgECsBBC3WPFinMyNMQABCKRBAHFLgzptkrkxBiAAgVgJIG6x4sU4mRtjAAIQSIMA4pYGddokc2MMQAACsRJA3GLFi3EyN8YABCCQBgHELQ3qtEnmxhiAAARiJYC4xYoX42RujAEIQCANAohbGtRpk8yNMQABCMRKAHGLFS/GydwYAxCAQBoEELc0qNMmmRtjAAIQiJUA4hYrXoyTuTEGIACBNAggbmlQr782Z0maL6lF0qOSwsztbkkPSbpX0qL6w0KPIQCBuAggbnGRxW6UQG9Jv5D0abuQfSKpj6T3JZ0tqUHSlySdABkEIAABVwQQN1cksdMdgUckTW3P0EzoomWupHndVeb3EIAABCohgLhVQotnayFgovaOpC9EjPxa0oVkbbVgpS4EINAVAcSNcZEkgeLsjawtSfq0BYE6IoC41VGwPehqNHsja/MgILgAgbwSQNzyGll/+2XZ2/TC7knW2vyNE55BINMEELdMh8+p842Swq+BTi13NnaOpJskPSfp4xjbScL0IUkHJbUl0RhtQAAC5RNA3MpnldcnTdAmt3fO1r8o1REwgbMsdEV11akFAQi4JoC4uSaaLXutUVFrbGxUU1OT7P8p3RM4ePCg7KutrU09evT495MnT36HLK57bjwBgSQIIG5JUPazja3tf4ibzLW5c+dq8uTJiFqVcZoyZYpWrAiSNnZ/VsmQahBwTQBxc000G/Y6MratW7cG2RqlegImbCZwhWnJ4BsKBCCQLgHELV3+abRuSmZZmxA2N/hHjhwZTE1KGsm0pBumWIFArQQQt1oJZq9+MB1pU5GtrZbAUWohYGtugwYNCk3weaoFJnUh4JAAH0aHMDNgqlnSctswcuDAgQy467+LkazNFt2YkvQ/ZHhYJwQQtzoJdKGbpmiNy5cvV3Oz6RylFgI2FWniViiWvtkrARQIQMADAoibB0FIyAWyNsegydocA8UcBBwSQNwcwvTcFFmbwwCRtTmEiSkIxEAAcYsBqocmydocB4WszTFQzEHAMQHEzTFQT82RtTkMDFmbQ5iYgkBMBBC3mMB6ZJaszXEwyNocA8UcBGIggLjFANUzk0HW5vqF7Q8++ECjR4/WrFmzNGbMGKddPnr0qEaNGqVly5Zp2LBhTm3XaoysrVaC1IdAMgQQt2Q4p9VKkLXZ8VomblkpPosbWVtWRhF+1jsBxC3fIyCWrM2QRTO3/v37a+rUqerbt69efvnlgOjGjRuDjG7Tpk1atGhR8LsNGzZowIAB2rlzp3r37t0p8wsF7fHHH9f9998f2OnZs6e2bdvmTfZWlLXx2cn3Z4feZZwAH9CMB/A07seatRWL29VXX605c+aopaUluGHg0KFD2rx5c5Axjh07VgsWLOj4nfm8ePHiLsXNpiJNLH2cloxkbZz+n9/PDT3LCQHELSeB7KIbsWVtXWVu48eP1/r164MsK8zWQnGbMWNGkK3169dPu3fvDrK8devWadq0aR1rdtGpSB/Fjawtvx8UepZPAohbPuMaa9ZWalpyy5YtgYAVi5tNS5rQnXvuuZkVN7K2fH5Q6FV+CSBu+YxtrFlbpeIWzdxM+Oy/X3zxxU6Zm2V0YfbnW+ZG1pbPDwm9yjcBxC1/8Y09a6tU3GzNLdxgYutx0TW3gQMHauXKlVq4cKEeeOCBYAOJb+JG1pa/Dwk9yj8BxC1/MY49a6tU3Gz3o5U9e/bommuu6TRFaRtRPvrooyCb2759e/Bu2+DBg4PNJrt27Up9tyRZW/4+IPSoPgggbvmKcyJZWyXIoutvtuaWtULWlrWI4S8EfksAccvXSEgka6sEWZbFjaytkkjzLAT8IoC4+RWPWrzxLmurpTM+1CVr8yEK+ACB6gggbtVx87HWZ+aU6zMkfexoEj6RtSVBmTYgEB8BxC0+tklabm1vbG7WzpBMElClbUWytintB0+vqLQ+z0MAAukSQNzS5e+qdbI2VyQlkbU5hIkpCKREAHFLCbzDZr3O2uI+4d/emxs6dGhwbmW0lPp5OdzJ2sqhxDMQ8JsA4uZ3fMrxzuusLQ1xM2FbtWpVx2HN5UAMn1mxYoWmTLGZyKDw+agEHs9CwCMCfHg9CkYVrjjJ2oq369tpIfv27QtODrHf2QkjVsLrauz8yPBWgOIrbsJjtAJlOOOM4Jqb5ubmTi9n26kkJj5WJk2aFLQTHqg8YsQIPfHEE52uuynln2Vss2fPDuzYrQPTp08PXv42+1a6yui6Y0zW1h0hfg+BbBBA3LIRp1JeOsnaSomHCUb06hkTPSvhtTb2fSiAEydODE4TsWKnjqxduza4zy2auYUnj9gz4Y0BxfUmTJjQcRyXHcQcPhc9fDkqvi6nJcnasv1hwHsIRAkgbtkdD06yNut+ueIWojLBuuKKK4IMywSs+G636PU3XYmbCaYJZPR3ZrtUvSNHjgQXnoY3C8QlbmRt2f0w4DkEigkgbtkdE06yttOJWzhdGJ7/GJ4LeeLEiUDcDh8+3ImeZXrXX399cF9beP1NV+I2a9asz2V1ZqhUvSTEjawtux8EPIdAVwQQt2yOC2dZW1fiFp7cb+IWLWHGVDxdGX0mXDurRtyimVv0CpxicYv652pakqwtmx8EvIZAKQKIWzbHhrOsLRS3cO3LrpuxrMxeCJ85c2anbKrUmpsJUbjOZvWrzdzMxpw5c4IpS2sruubWlX8mvi7Ejawtmx8CvIbA6QggbtkbH8sl24DYrOXL7Vs3Jdw+bzsibXfk8ePHOzZ2hDsSo9fVFO+WtGzORKmWzM1EsW/fvrIdmNGdmdbD7vwL2w9pVPKeG1mbmzGEFQj4RABx8yka5fniNGsrr8n4nyoWxfhb/G0LkaztYPvmz0FJtUs7EIBAvAQQt3j5urYeS9bm2slq7KUlbmRt1USLOhDwnwDi5n+Moh7mMmtLKwRkbWmRp10IxE8AcYufsasWcpu1uQJUqZ1Bgwbp4EGbjRQn/1cKj+ch4DkBxM3zAEXcI2tzGCuyNocwMQUBDwkgbh4GpQuXyNocx4mszTFQzEHAMwKIm2cBKeEOWZvDOJG1OYSJKQh4SgBx8zQwEbfI2hzHiKzNMVDMQcBDAoibh0EpculA++tYjQcOHFBjY6P/3nru4bx58zR37lzzkvfaPI8V7kGgFgKIWy304q/bLGm569NI4nfbzxba2tpk77UVin3T5qeneAUBCNRKAHGrlWC89YMpSTtmywSOUj2BImGz1G1e9daoCQEI+E4AcfM7QsHp/2Ru1QfJ3mOzA5YLU5FmyLK1jvStesvUhAAEfCaAuPkcHalJ0lZz0dbb7KR+1t3KC5iJmn1ZxhYpZGzl4eMpCGSeAOLmfwgbe/Tosf3kyZO/57+r3npoomaX0wXHkVAgAIH8E0DcshHjcJukZXJWBmbD7ZJemtgEWxZjLIcKYsamkRghYxoCvhJA3HyNTL79spfSGXv5jjG9g0CqBPgDkyr+um0ccavb0NNxCCRDAHFLhjOtdCaAuDEiIACBWAkgbrHixXgJAogbQwMCEIiVAOIWK16MI26MAQhAIA0CiFsa1GmTzI0xAAEIxEoAcYsVL8bJ3BgDEIBAGgQQtzSo0yaZG2MAAhCIlQDiFitejJO5MQYgAIE0CCBuaVCnTTI3xgAEIBArAcQtVrwYJ3NjDEAAAmkQQNzSoE6bZG6MAQhAIFYCiFuseDFO5sYYgAAE0iCAuKVBnTbJ3BgDEIBArAQQt1jxYpzMjTEAAQikQQBxS4M6bZK5MQYgAIFYCSBuseLFOJkbYwACEEiDAOKWBnXaJHNjDEAAArESQNxixYtxMjfGAAQgkAYBxC0N6rRJ5sYYgAAEYiWAuMWKF+MFArMkzZfUIulRSaG43S3pIUn3SloELQhAAAKuCCBurkhi53QEekv6haRP24XsE0l9JL0v6WxJDZK+JOkECCEAAQi4IoC4uSKJne4IPCJpanuGZkIXLXMlzeuuMr+HAAQgUAkBxK0SWjxbCwETtXckfSFi5NeSLiRrqwUrdSEAga4IIG6MiyQJFGdvZG1J0qctCNQRAcStjoLtQVej2RtZmwcBwQUI5JUA4pbXyPrbL8vephd2T7LW5m+c8AwCmSaAuGU6fE6db5QUfg10armzsXMk3STpOUkfx9hOEqYPSTooqS2JxmgDAhAonwDiVj6rvD5pgja5vXO2/kWpjoAJnGWhK6qrTi0IQMA1AcTNNdFs2WuNilpjY6Oamppk/0/pnsDBgwdlX21tberRo8e/nzx58jtkcd1z4wkIJEEAcUuCsp9tbG3/Q9xkrs2dO1eTJ09G1KqM05QpU7RiRZC0sfuzSoZUg4BrAoiba6LZsNeRsW3dujXI1ijVEzBhM4ErTEsG31AgAIF0CSBu6fJPo3VTMsvahLC5wT9y5MhgalLSSKYl3TDFCgRqJYC41Uowe/WD6UibimxttQSOUgsBW3MbNGhQaILPUy0wqQsBhwT4MDqEmQFTzZKW24aRAwcOZMBd/12MZG226MaUpP8hw8M6IYC41UmgC900RWtcvny5mptN5yi1ELCpSBO3QrH0zV4JoEAAAh4QQNw8CEJCLpC1OQZN1uYYKOYg4JAA4uYQpuemyNocBoiszSFMTEEgBgKIWwxQPTRJ1uY4KGRtjoFiDgKOCSBujoF6ao6szWFgyNocwsQUBGIigLjFBNYjs2RtjoNB1uYYKOYgEAMBxC0GqJ6ZDLI21y9sf/DBBxo9erRmzZqlMWPGOO3y0aNHNWrUKC1btkzDhg1zartWY2RttRKkPgSSIYC4JcM5rVaCrM2O1zJxy0rxWdzI2rIyivCz3gkgbvkeAbFkbYYsmrn1799fU6dOVd++ffXyyy8HRDdu3BhkdJs2bdKiRYuC323YsEEDBgzQzp071bt3706ZXyhojz/+uO6///7ATs+ePbVt2zZvsreirI3PTr4/O/Qu4wT4gGY8gKdxP9asrVjcrr76as2ZM0ctLS3BDQOHDh3S5s2bg4xx7NixWrBgQcfvzOfFixd3KW42FWli6eO0ZCRr4/T//H5u6FlOCCBuOQlkF92ILWvrKnMbP3681q9fH2RZYbYWituMGTOCbK1fv37avXt3kOWtW7dO06ZN61izi05F+ihuZG35/aDQs3wSQNzyGddYs7ZS05JbtmwJBKxY3Gxa0oTu3HPPzay4kbXl84NCr/JLAHHLZ2xjzdoqFbdo5mbCZ//94osvdsrcLKMLsz/fMjeytnx+SOhVvgkgbvmLb+xZW6XiZmtu4QYTW4+LrrkNHDhQK1eu1MKFC/XAAw8EG0h8Ezeytvx9SOhR/gkgbvmLcexZW6XiZrsfrezZs0fXXHNNpylK24jy0UcfBdnc9u3bg3fbBg8eHGw22bVrV+q7Jcna8vcBoUf1QQBxy1ecE8naKkEWXX+zNbesFbK2rEUMfyHwWwKIW75GQiJZWyXIsixuZG2VRJpnIeAXAcTNr3jU4o13WVstnfGhLlmbD1HABwhURwBxq46bj7U+M6dcnyHpY0eT8ImsLQnKtAGB+AggbvGxTdJya3tjc7N2hmSSgCptK5K1TWk/eHpFpfV5HgIQSJcA4pYuf1etk7W5IimJrM0hTExBICUCiFtK4B0263XWFvcJ//be3NChQ4NzK8PzLsPDm6OvHVTCm6ytElo8CwE/CSBufsalEq+8ztqSFDd7EdxKVOjsAGb773LLihUrNGWKzUQGhc9HueB4DgKeEeDD61lAKnTHSdZWvF3fRGLfvn3BySH2OzthxEp4XY2dH1mcJYUnkITHaAXKcMYZwTU3zc3NnV7OtlNJVq1aFdicNGlS0E54oPKIESP0xBNPdLruppR/lrHNnj07sBPeOhDlZ/2w8y7Dcy3LYUvWVg4lnoGA/wQQN/9jdDoPnWRtpcTDBCN69Uw0MwqP0QoFcOLEicFpIlbs1JG1a9cG97lFM7fw5BF7JrwxoLjehAkTOo7jCoXJdoBGD1+Oim90WrIYVNTHcsJM1lYOJZ6BQDYIIG7ZiFNXXjrJ2sxwueIWOmGCdcUVVwQZlglY8d1u0etvuhK3cKow+juzXarekSNHKha38IDm8KqdcsJM1lYOJZ6BQDYIIG7ZiFNXXjrJ2k4nbuF0YXj+Y7hB48SJE4G4HT58uJNfluldf/31wX1t4fU3XYnbrFmzPpfVmaFS9SoVNxO2MCO0++XKKWRt5VDiGQhkhwDilp1YRT11lrV1JW6lpvPC6cDi6cqoY+HaWTXiFs3colfgFItb1L/iaclqMjbzn6wtmx8EvIZAKQKIWzbHhrOsLRS3MNOx62YsK7MXwmfOnNkpmyq15mZCFK6zWf1qMzezMWfOnGB3Y3QziK25deWfZZZRcatW2MjakVz5TwAAIABJREFUsvkhwGsInI4A4pa98bFcsg2IzVq+3L51U0wkbAej7Yi03ZHHjx/v2NgR7kiMvjdWvFsy3K1YS+Zmoti3b1/Ze2rRnZnWw+78s/Zth2e4CzOkUs67bmRtbsYQViDgEwHEzadolOeL06ytvCbjf6pYFONv8bctRLK2g5IGJdUu7UAAAvESQNzi5evaeixZm2snq7GXlriRtVUTLepAwH8CiJv/MYp6mMusLa0QkLWlRZ52IRA/AcQtfsauWsht1uYKUKV2Bg0apIMHbTZSnPxfKTyeh4DnBBA3zwMUcY+szWGsyNocwsQUBDwkgLh5GJQuXCJrcxwnsjbHQDEHAc8IIG6eBaSEO2RtDuNE1uYQJqYg4CkBxM3TwETcImtzHCOyNsdAMQcBDwkgbh4GpcilA+2vYzUeOHBAjY2N/nvruYfz5s3T3LlzzUvea/M8VrgHgVoIIG610Iu/brOk5a5PI4nfbT9baGtrC86QLBT7ps1PT/EKAhColQDiVivBeOsHU5J2zJYJHKV6AkXCZqnbvOqtURMCEPCdAOLmd4SC0//J3KoPkr3HZgcsF6YizZBlax3pW/WWqQkBCPhMAHHzOTpSk6St5qKtt9lJ/ay7lRcwEzX7sowtUsjYysPHUxDIPAHEzf8QNvbo0WP7yZMnf89/V7310ERtZWETibdO4hgEIOCOAOLmjmWclsJtkpbJWRkYZ2MJ2DaxCbYsxlgOFcSMTSMxQsY0BHwlgLj5Gpl8+2UvpTP28h1jegeBVAnwByZV/HXbOOJWt6Gn4xBIhgDilgxnWulMAHFjREAAArESQNxixYvxEgQQN4YGBCAQKwHELVa8GEfcGAMQgEAaBBC3NKjTJpkbYwACEIiVAOIWK16Mk7kxBiAAgTQIIG5pUKdNMjfGAAQgECsBxC1WvBgnc2MMQAACaRBA3NKgTptkbowBCEAgVgKIW6x4MU7mxhiAAATSIIC4pUGdNsncGAMQgECsBBC3WPFinMyNMQABCKRBAHFLgzptkrkxBiAAgVgJIG6x4sU4mRtjAAIQSIMA4pYGddokc2MMQAACsRJA3GLFi3EyN8YABCCQBgHELQ3qtEnmxhiAAARiJYC4xYoX42RujAEIQCANAohbGtRpk8yNMQABCMRKAHGLFS/GCwRmSZovqUXSo5JCcbtb0kOS7pW0CFoQgAAEXBFA3FyRxM7pCPSW9AtJn7YL2SeS+kh6X9LZkhokfUnSCRBCAAIQcEUAcXNFEjvdEXhE0tT2DM2ELlrmSprXXWV+DwEIQKASAohbJbR4thYCJmrvSPpCxMivJV1I1lYLVupCAAJdEUDcGBdJEijO3sjakqRPWxCoIwKIWx0F24OuRrM3sjYPAoILEMgrAcQtr5H1t1+WvU0v7J5krc3fOOEZBDJNAHHLdPicOt8oKfwa6NRyZ2PnSLpJ0nOSPo6xnSRMH5J0UFJbEo3RBgQgUD4BxK18Vnl90gRtcnvnbP2LUh0BEzjLQldUV51aEICAawKIm2ui2bLXGhW1xsZGNTU1yf6f0j2BgwcPyr7a2trUo0ePfz958uR3yOK658YTEEiCAOKWBGU/29ja/oe4yVybO3euJk+ejKhVGacpU6ZoxYogaWP3Z5UMqQYB1wQQN9dEs2GvI2PbunVrkK1RqidgwmYCV5iWDL6hQAAC6RJA3NLln0brpmSWtQlhc4N/5MiRwdSkpJFMS7phihUI1EoAcauVYPbqB9ORNhXZ2moJHKUWArbmNmjQoNAEn6daYFIXAg4J8GF0CDMDppolLbcNIwcOHMiAu/67GMnabNGNKUn/Q4aHdUIAcauTQBe6aYrWuHz5cjU3m85RaiFgU5EmboVi6Zu9EkCBAAQ8IIC4eRCEhFwga3MMmqzNMVDMQcAhAcTNIUzPTZG1OQwQWZtDmJiCQAwEELcYoHpokqzNcVDI2hwDxRwEHBNA3BwD9dQcWZvDwJC1OYSJKQjERABxiwmsR2bJ2hwHg6zNMVDMQSAGAohbDFA9Mxlkbbyw7SYqZG1uOGIFAnETQNziJpyu/SBrs+O1TNwotRMga6udIRYgkAQBxC0Jyum1QdbmkH1R1sZnxyFbTEHANQE+oK6J+mOPrM1xLCJZG6f/O2aLOQi4JoC4uSbqjz2yNoexIGtzCBNTEEiAAOKWAOQUmiBrcwydrM0xUMxBIGYCiFvMgFMyT9bmEDxZm0OYmIJAQgQQt4RAJ9hMTVnb0aNHNWrUKC1btkzDhg1LzO2427WbxocOHaqWlpZOfSr18+hDZG2JDQMagoAzAoibM5TeGKopa4tbZEpRirvdrkTMfrZq1SotWLDgc6IX+knW5s24xhEIVEQAcasIl/cPfy5rW7hwoWbPnq2ePXvqhhtuUJ8+fbRy5Up98MEHGj16tF5++eWgUxs3bgyubwl/Zs9v27atU/a2adMmLVq0SJs3b9a5554rs71v377Anv1u7Nixga0BAwZo586d6tevX5ftjBkzRrt379b48eOD58844wxt2LAhuIbHMsbBgwcHfgwcODAQHyuTJk0K2rF6U6dO1YgRI/TEE08E/Qr9LOWfZWzGwIoJ2fTp0zvs28+6yujCSJO1eT/mcRACXRJA3PI1MDplbaGArF+/Xv3799cVV1whe6HbRMKyFiuhME2cODEQCXuu1LRkKfEwwYjWMdGzYlOApdqx31999dVau3atTOyimVsobvaMCam9gB76F9abMGFC4Lu1tWXLlo7nSolvNdOSZG35+nDQm/oigLjlJ95dZm1hZmXdDDMtEyMTOst8TFjCLG7WrFkaPnx4zeIWIjXBKtWOiahlbia8trbXlbiZYJpARn9ntkvVO3LkSMnMshpxI2vLz4eDntQfAcQtPzH/zLoSPUMymjV1JW6HDx/u1HsTPZv+qzRzC6cLLRP76KOPdM011wSZ1IkTJwJx66qd66+/PphetKzLpi+7EjcT2+KszhwuVc+luJG15eeDQU/qkwDilo+4t7Z3Y27xGZLRNbFicSslYKfb2FE8LVksniHKaIZYqp1w7awacYtmbtGp12Jxi/pXaeYWydqmtB88vSIfw4ReQKB+CCBu+Yj157I261a5a272XLj+1d20ZHRtLlzDmzlzZqdsqtSaW7Qdm5asNnMzX+fMmRNMWRavuXXlX7jGWO6rAGRt+fhQ0Iv6JoC4ZT/+XWZt0SzKdgraDkbbzXj8+PEud0uG2+HD9bddu3Z9brek2Qy3zxfbC3dl2jPhtKTtqCzelRm2U0vmZqLYt2/fYKdndGdmOf4Vb/vvKqMja8v+h4IeQABxy/4Y6DJrK+5WKDLhJo2sdrtYFF33Y8WKFZoyxWYig8LnwzVg7EEgIQJ8eBMCHVMzp83aou+eWfvhu2Ix+ZKI2bjFjawtkTDSCARiJ4C4xY441gbKytpi9SBHxsnachRMulL3BBC37A6B02Zt2e1Wep6TtaXHnpYh4JoA4uaaaHL2yNocsiZrcwgTUxDwgADi5kEQqnCBrK0KaKerQtbmGCjmIJAyAcQt5QBU2TxZW5XguqpG1uYQJqYg4AkBxM2TQFTgxnLJDtBv1vLl9i2lVgJkbbUSpD4E/COAuPkXk+48ImvrjlAFv49kbQfbL0kYVEFVHoUABDwmgLh5HJwuXCNrcxwvsjbHQDEHAU8IIG6eBKJMN8jaygRVzmNkbeVQ4hkIZJMA4paduJG1OY7VoEGDdPCgzUaKk/8ds8UcBNImgLilHYHy2ydrK59Vt0+StXWLiAcgkGkCiFs2wkfW5jhOZG2OgWIOAp4RQNw8C0gJd8jaHMaJrM0hTExBwFMCiJungYm4RdbmOEZkbY6BYg4CHhJA3DwMSpFLByQ1HjhwQI2Njf5767mH8+bN09y5c81L3mvzPFa4B4FaCCButdCLv26zpOWcRuIGdFtbm+y9tkKxb9rcWMYKBCDgGwHEzbeIdPYnmJK0Y7ZM4CjVEygSNkvd5lVvjZoQgIDvBBA3vyMUnP5P5lZ9kOw9tpUrV4ZTkWbIsrWO9K16y9SEAAR8JoC4+RwdqUnSVnPR1tuamppYdyszXiZq9mUZW6SQsZXJj8cgkHUCiJv/EWzs0aPH9pMnT/6e/65666GJ2srCJhJvncQxCEDAHQHEzR3LOC2F2yQtk7MyMM7GErBtYhNsWYyxHCqIGZtGYoSMaQj4SgBx8zUy+fbLXkpn7OU7xvQOAqkS4A9MqvjrtnHErW5DT8chkAwBxC0ZzrTSmQDixoiAAARiJYC4xYoX4yUIIG4MDQhAIFYCiFuseDGOuDEGIACBNAggbmlQp00yN8YABCAQKwHELVa8GCdzYwxAAAJpEEDc0qBOm2RujAEIQCBWAohbrHgxTubGGIAABNIggLilQZ02ydwYAxCAQKwEELdY8WK8QGCWpPmSWiQ9KikUt7slPSTpXkmLoAUBCEDAFQHEzRVJ7JyOQG9Jv5D0abuQfSKpj6T3JZ0tqUHSlySdACEEIAABVwQQN1cksdMdgUckTW3P0EzoooVraLojx+8hAIGKCSBuFSOjQpUETNTekfSFSP1fS7qQrK1KolSDAARKEkDcGBxJEijO3sjakqRPWxCoIwKIWx0F24OuRrM3sjYPAoILEMgrAcQtr5H1t1+WvU0v7J6c56+beAYBCGSZAOKW5ei59d1u+w6/4rzp+xxJN0l6TtLHbruQuDVu+04cOQ1CoDwCiFt5nPL8lAna5PYO2voXpToCB9tvFrcsdEV11akFAQi4JoC4uSaaLXutUVFrbGxUU1OT7P8p3RM4ePCg7KutrU09evT495MnT35HUlv3NXkCAhCImwDiFjdhf+1vbf9D3GTuzZ07V5MnT0bUqozVlClTtGJFkLSx+7NKhlSDgGsCiJtrotmw15Gxbd26NcjWKNUTMGEzgStMSwbfUCAAgXQJIG7p8k+jdVMyy9qEsLnBP3LkyGBqUtJIpiXdMMUKBGolgLjVSjB79YPpSJuKbG21BI5SCwFbcxs0aFBogs9TLTCpCwGHBPgwOoSZAVPNkpbbhpEDBw5kwF3/XYxkbbboxpSk/yHDwzohgLjVSaAL3TRFa1y+fLmam03nKLUQsKlIE7dCsfTNXgmgQAACHhBA3DwIQkIukLU5Bk3W5hgo5iDgkADi5hCm56bI2hwGiKzNIUxMQSAGAohbDFA9NEnW5jgoZG2OgWIOAo4JIG6OgXpqjqzNYWDI2hzCxBQEYiKAuMUE1iOzZG2Og0HW5hgo5iAQAwHELQaonpkMsjZe2HYTFbI2NxyxAoG4CSBucRNO136QtdnxWiZulNoJkLXVzhALEEiCAOKWBOX02iBrc8i+KGvjs+OQLaYg4JoAH1DXRP2xR9bmOBaRrI3T/x2zxRwEXBNA3FwT9cceWZvDWJC1OYSJKQgkQABxSwByCk2QtTmGTtbmGCjmIBAzAcQtZsApmSdrcwierM0hTExBICECiFtCoBNspqas7ejRoxo1apSWLVumYcOGJeZ23O3aTeNDhw5VS0uLPvjgA40ePVovv/xy0L9rrrlGmzdv1rnnnttlf8naEhsGNAQBZwQQN2covTFUU9YWt8iUohR3u1FxW7hwYeBGVOhM0O2/iwtZmzfjGkcgUBEBxK0iXN4//Lmszf6Qz549Wz179tQNN9ygPn36aOXKlZ/LXjZu3Bhc3xJmNPb8tm3bOmVvmzZt0qJFizqyHLO9b9++wJ79buzYsQGgAQMGaOfOnerXr1+X7YwZM0a7d+/W+PHjg+fPOOMMbdiwIbiGxzLGwYMHB34MHDhQq1atCp6ZNGlS0I7Vmzp1qkaMGKEnnngi6FfoZyn/LGMzBlYWLFjwORGzfmzZsqXL7I2szfsxj4MQ6JIA4pavgdEpawsFZP369erfv7+uuOIK2QvdJhKWyVgJhWnixImBSNhzpaYlS4mHCUa0TjQzKtWOtX311Vdr7dq1MrGLZm6huNkzNl1oL6CH/oX1JkyYEPgeFSZ7rpT4RjO34pBHfYz+jqwtXx8OelNfBBC3/MS7y6wtzKysm2GmZWJkQmeZjwlLuAY1a9YsDR8+vGZxC5GaYJVqx0TUMjcTXlvb60rcwqnC6O/Mdql6R44cqVjcTLBnzJjRkWlGhwNZW34+HPSk/gggbvmJ+WfWlegZksUZSbG4HT58uFPvTfRs+q/SzC2cLrRM7KOPPurYoHHixIlA3Lpq5/rrrw+mF2060KYvuxI3E9virM4cLlWvUnEzYQszwuLNM2Rt+flg0JP6JIC45SPure3dmFt8hmR0Taw4cyslYKfb2FE8LVlqOi8qoqXaCdfOqhG3aOYWnXotFreof8XTkqfL2IxVJGub0n7w9Ip8DBN6AYH6IYC45SPWn8varFvlrrnZc+H6V3fTktG1uXANb+bMmZ2yqVJrbtF2bFqy2szNfJ0zZ06wMaR4za0r/8I1xvBVgO6EjawtHx8KelHfBBC37Me/y6wt7Fa4W9J2MNpuxuPHj3e5WzLcRRiuv+3atetzuyXNpmVAtoOx2F7Yjj0TfW+s+J2ysJ1aMjcTxb59+wbvqUV3Zpbjn7Vv65DhLsyQU9RnsrbsfyjoAQQQt+yPgS6ztuJuhSJT6n2urGAoFkXXfq9YsUJTpthMZFD4fLgGjD0IJESAD29CoGNq5rRZW/TdM2s/fFcsJl8SMRu3uJG1JRJGGoFA7AQQt9gRx9pAWVlbrB7kyDhZW46CSVfqngDilt0hcNqsLbvdSs9zsrb02NMyBFwTQNxcE03OHlmbQ9ZkbQ5hYgoCHhBA3DwIQhUukLVVAe10VcjaHAPFHARSJoC4pRyAKpsna6sSXFfVyNocwsQUBDwhgLh5EogK3Fgu2QH6zVq+3L6l1EqArK1WgtSHgH8EEDf/YtKdR2Rt3RGq4PeRrO1g+yUJgyqoyqMQgIDHBBA3j4PThWtkbY7jRdbmGCjmIOAJAcTNk0CU6QZZW5mgynmMrK0cSjwDgWwSQNyyEzeyNsexGjRokA4etNlIcfK/Y7aYg0DaBBC3tCNQfvtkbeWz6vZJsrZuEfEABDJNAHHLRvjI2hzHiazNMVDMQcAzAoibZwEp4Q5Zm8M4kbU5hIkpCHhKAHHzNDARt8jaHMeIrM0xUMxBwEMCiJuHQSly6YCkxgMHDqixsdF/bz33cN68eZo7d655yXttnscK9yBQCwHErRZ68ddtlrSc00jcgG5ra5O911Yo9k2bG8tYgQAEfCOAuPkWkc7+BFOSdsyWCRylegJFwmap27zqrVETAhDwnQDi5neEgtP/ydyqD5K9x7Zy5cpwKtIMWbbWkb5Vb5maEICAzwQQN5+jIzVJ2mou2npbU1MT625lxstEzb4sY4sUMrYy+fEYBLJOAHHzP4KNPXr02H7y5Mnf899Vbz00UVtZ2ETirZM4BgEIuCOAuLljGaelcJukZXJWBsbZWAK2TWyCLYsxlkMFMWPTSIyQMQ0BXwkgbr5GJt9+2UvpjL18x5jeQSBVAvyBSRV/3TaOuNVt6Ok4BJIhgLglw5lWOhNA3BgREIBArAQQt1jxYrwEAcSNoQEBCMRKAHGLFS/GETfGAAQgkAYBxC0N6rRJ5sYYgAAEYiWAuMWKF+NkbowBCEAgDQKIWxrUaZPMjTEAAQjESgBxixUvxsncGAMQgEAaBBC3NKjTJpkbYwACEIiVAOIWK16Mk7kxBiAAgTQIIG5pUKdNMjfGAAQgECsBxC1WvBgnc2MMQAACaRBA3NKgTptkbowBCEAgVgKIW6x4MU7mxhiAAATSIIC4pUGdNsncGAMQgECsBBC3WPFinMyNMQABCKRBAHFLgzptkrkxBiAAgVgJIG6x4sU4mRtjAAIQSIMA4pYGddokc2MMQAACsRJA3GLFi/ECgVmS5ktqkfSopFDc7pb0kKR7JS2CFgQgAAFXBBA3VySxczoCvSX9QtKn7UL2iaQ+kt6XdLakBklfknQChBCAAARcEUDcXJHETncEHpE0tT1DM6GLlrmS5nVXmd9DAAIQqIQA4lYJLZ6thYCJ2juSvhAx8mtJF5K11YKVuhCAQFcEEDfGRZIEirM3srYk6dMWBOqIAOJWR8H2oKvR7I2szYOA4AIE8koAcctrZP3tl2Vv0wu7J1lr8zdOeAaBTBNA3DIdvsD5kZIuK+xAzEJvzpF0k6TnJH2cBYcLOzv3SNqaEX9xEwJ1TwBxy+4Q+Iv2P7r/U9KA7HYhc54fbv9HhGWef5M5z3EYAnVGAHHLXsB7SFon6WZz/dJLL9WIESN0wQUXZK8nGfH42LFj2r59u/bu3Rt6vEHSBEknM9IF3IRA3RFA3LIX8mdM2Pr166fHHntMEybY31hKEgTWrVunmTNn6ujRo9acCdy4JNqlDQhAoHICiFvlzNKsYVORj5iwvfTSS7rkkkvS9KUu237jjTd07bXXhgJn08JMUdblSKDTvhNA3HyPUGf/Dtka209+8hMythTjZhnct771LfPA1uAGpugKTUMAAiUIIG7ZGRq2K/IlW2N7/fXXs+N1Tj39gz/4g3AN7lp2UeY0yHQr0wQQt+yEL5iSvOuuu7R48eLseJ1TT6dPn64lS5ZY75iazGmM6Va2CSBu2Ylfa7urc9uLWlvtW0qaBObNm2fBMBc4QizNQNA2BJiWzPwYQNw8CiHi5lEwcAUCXRAgc8vOsEDcPIoV4uZRMHAFAohbpscA4uZR+BA3j4KBKxBA3DI9BhA3j8KHuHkUDFyBAOKW6TGAuHkUPsTNo2DgCgQQt0yPAcTNo/Ahbh4FA1cggLhlegwgbh6FD3HzKBi4AgHELdNjAHHzKHyIm0fBwBUIIG6ZHgOIm0fhQ9w8CgauQABxy/QYQNw8Ch/i5lEwcAUCiFumxwDi5lH4EDePgoErEEDcMj0GEDePwoe4eRQMXIEA4pbpMYC4eRQ+xM2jYOAKBBC3TI+BmsRt4cKF2rdvn1auXFkSwuTJkzV06FC1tLTEDqocf1w7cfToUV1xxRU6fPiwrrnmGm3evFnnnntuVc0gblVhoxIEEiPAwcmJoa65oVjF7YMPPtDo0aM1atSo3IpbKN52F5v1ddasWRozZkxVgUHcqsJGJQgkRgBxSwx1zQ05E7fdu3fr6quv1kcffaQBAwZo586dWrVqlWbPnq2ePXtq27ZtGjZsWOCwZTsmeI2NjdqwYUPH7wcPHtxJDDdt2qRFixbpqaee0i233KKrrrpKjzzySNDGmjVr9Hd/93d6+eWXNWnSpCB7tMxty5YtOnDgQJBJhT+3Nu135ouV8Odm//777w9+dtlll502A+2KdJi1PfHEE4Gg1Zo5Im41j2cMQCBWAohbrHidGncibgsWLAjEatmyZYGAhX/k7XbvrjK3UBTsBnCbrrTsx0rx88XiZs/YtJ8998ADDwSCeeTIEc2YMaNDTMOf9+/fP5guNOGxYiJpda2EGZZ9P3HixE7CG9KNimH4s6hYRkU62m8T12qnJhE3p2MbYxBwTgBxc440NoNOxG3mzJkdWVvoqWVvL774oqZNm/a5aclSGU934hZOb4aiZyLy5ptvaurUqUHGZpliVFzCKUPzKczaokI1YcKEDmHs169fxZDDDBRxqxgdFSCQSQKIW3bC5kzcQoGJikSpNbc0xK2rjS8mkmHWVyxu5WZuYXbItGR2Bj2eQqBaAohbteSSr+dE3Gxa0v7Ih9OM4dpXuFZWvKHkdGtV4RSlraHZ94cOHepYcysncys1LRlOP0bX9WwXZylxKzcUbCgplxTPQSD7BBC37MTQibiZEHW1ocSyIfvjv27dus9tKCmV8Vg2NXbs2ICgrXFVKm4//vGPg7p79uwpa0NJreIWfRWgeE2u0mHAmlulxHgeAskSQNyS5V1LazWJWy0NU/fzBBA3RgUE/CaAuPkdn6h3iJtHsULcPAoGrkCgCwKIW3aGBeLmUawQN4+CgSsQQNwyPQYQN4/Ch7h5FAxcgQDilukxgLh5FD7EzaNg4AoEELdMjwHEzaPwIW4eBQNXIIC4ZXoMIG4ehQ9x8ygYuAIBxC3TYwBx8yh8iJtHwcAVCCBumR4DiJtH4UPcPAoGrkAAccv0GEDcPAof4uZRMHAFAohbpscA4uZR+BA3j4KBKxBA3DI9BhA3j8KHuHkUDFyBAOKW6TGAuHkUPsTNo2DgCgQQt0yPAcTNo/Ahbh4FA1cggLhlegwgbh6FD3HzKBi4AgHELdNj4C8kPWKXjC5evDjTHcmD89OnT9eSJUusK/9T0t/koU/0AQJ5IsCtANmJ5khJL1166aV6/fXXs+N1Tj39gz/4A+3du9d6d62krTntJt2CQGYJIG7ZCt0hSQN+8pOfaMKECdnyPEfe2m3l3/rWt6xHhyUNzFHX6AoEckMAcctWKIOpyX79+umll17SJZdcki3vc+DtG2+8oWuvvVZHjx5lSjIH8aQL+SWAuGUvts9IutkE7rHHHiODSzB+lrHNnDkzFLYNksYl2DxNQQACFRBA3CqA5cmjPSStM4Ezf2wNbsSIEbrgggs8cS9/bhw7dkzbt28P19isgyZsNi98Mn+9pUcQyAcBxC27cbQpStupNyC7Xcic57bG9gi7IzMXNxyuQwKIW/aDbrsoL2v/o9snQ12Z2+6rfWWlvC9pD7sisxIu/ISAhLgxCtIg8JkYe2lwp00I1A0BxK1uQu1VRxE3r8KBMxDIHwHELX8xzUKPELcsRAkfIZBhAohbhoOXYdcRtwwHD9chkAUCiFsWopQ/HxG3/MWUHkHAKwKIm1fhqBtnELe6CTUdhUA6BBC3dLjXe6uIW72PAPoPgZgJIG4xA8Z8lwQQNwYGBCAQKwHELVa8GC9BAHFjaEAAArESQNxixYtxxI0xAAEIpEEAcUuDOm2SuTEGIACBWAkgbrHixTiZG2MAAhBIgwDilgZ12iRzYwxAAAKxEkDcYsWLcTI3xgAEIJAGAcSVtyqQAAAgAElEQVQtDeq0SebGGIAABGIlgLjFihfjZG6MAQhAIA0CiFsa1GmTzI0xAAEIxEoAcYsVL8bJ3BgDEIBAGgQQtzSo0yaZG2MAAhCIlQDiFitejJO5MQYgAIE0CCBuaVCvvzZnSZovqUXSo5LCzO1uSQ9JulfSovrDQo8hAIG4CCBucZHFbpRAb0m/kPRpu5B9IqmPpPclnS2pQdKXJJ0AGQQgAAFXBBA3VySx0x2BRyRNbc/QTOiiZa6ked1V5vcQgAAEKiGAuFVCi2drIWCi9o6kL0SM/FrShWRttWClLgQg0BUBxI1xkSSB4uyNrC1J+rQFgToigLjVUbA96Go0eyNr8yAguACBvBJA3PIaWX/7ZdnbDEn/L2tt/gYJzyCQdQKIW9YjmD3/L5K0S9JXJb2dPffxGAIQyAIBxC0LUcqPj+dJ+idJV0p6RdLXJR3PT/foCQQg4AsBxM2XSOTfj3MKwtZ0+eWX67XXXrMetxUE7uP8d58eQgACSRJA3JKkXd9tbTEhGzJkiP7pn/5JX//617V//34jYpncqPpGQ+8hAAHXBBA310Sx1xWB9ZLGXXTRRYGwXXzxxXrrrbcCgXv77WDZ7RlJ40EHAQhAwBUBxM0VSeyUIrBW0i39+/cPhO3SSy/teG7v3r2BwB05csR+9pSkiWCEAAQg4IIA4uaCIjZKEVghafL5558fCNtXv2obJDuXXbt2BQL3q1/9yn6xUlIzOCEAAQjUSgBxq5Ug9UsR+KGkO3r16hUI21VXXVWS1I4dOwKB+/DDD+2ZH0m6E6wQgAAEaiGAuNVCj7qlCNi1NjMbGhoCYbv++uu7JfXCCy8EAnfq1Cl79jFJdh0OBQIQgEBVBBC3qrBR6TQEFkq6x36/adMmjR49umxYmzdv1pgxY8Ln7Z43u/+NAgEIQKBiAohbxciocBoCdnXNHPv9unXr9M1vfrNiWE8//bQmTJgQ1nug/WLT1oqNUAECEKh7Aohb3Q8BZwDsNm27bVurV6/WbbfdVrXhNWvW6Pbbbw/r39d+qemDVRujIgQgUJcEELe6DLvzTn+v/RLSRWZ16dKlmjrV7iStrSxbtkzTpk0LjcyS9HBtFqkNAQjUEwHErZ6iHU9f75K02EwvXrxYd91l/+mmLFmyRNOnTw+N2TdL3FjGCgQgkHcCiFveIxxv/yxFW2pNLFq0SN/7niVwbsvDDz+sWbMscQuKpXLL3LaANQhAII8EELc8RjWZPtmi2mprav78+br3Xltyi6c8+OCDuu8+W3oLii3GrYmnJaxCAAJ5IYC45SWSyfbDtkGusybnzJmjefNsk2S8pbW1VQ88YJsng2LbKZ+Ot0WsQwACWSaAuGU5eun4bi+ubbKm77nnHi1caK+1JVNaWlr00EP2+ltQ7IW4zcm0TCsQgEDWCCBuWYtYuv7aUSN2RU3DzJkz9eijdhBJsuXuu+/WY4/ZASayo0zsstMXkvWA1iAAgSwQQNyyECU/fLTDIU3Yet1xxx364Q/t6Mh0yp133qkf/ciOoJQdRmkCtyMdT2gVAhDwlQDi5mtk/PLLjvM3YTt/8uTJWrHCDvtPtzQ3N2vlSrtEQHadgAncrnQ9onUIQMAnAoibT9Hw0xe7gM2Erf8tt9yitWvtejY/ysSJE/XUU3YNnOxCOBO4vX54hhcQgEDaBBC3tCPgd/sXF4TtonHjxmn9ertQ268yfvx4PfOMXeQtu9LbBO4tvzzEGwhAIA0CiFsa1LPR5oCCsA2xq2i2bNnirdejRo0KrtZpv/F7f0HgDnvrLI5BAAKJEEDcEsGcuUYuKAjb5U1NTYFwnHPOOd524uOPPw7ugmtrazMfXysI3DFvHcYxCEAgdgKIW+yIM9fAeQVhu/LKK68MhO288+xHfpfjx48HAvfKK6+Yo/Y/NkV53G+v8Q4CEIiLAOIWF9ls2rX0zOb3mi6//PJA2C64wJK4bJRjx44FAvfaa5a8ydI4E7iPs+E9XkIAAi4JIG4uaWbfli2sfX3IkCGBsA0YYMtu2SqHDx8OBG7/flt+C4R6VLZ6gLcQgIALAoibC4r5sGFbIcdddNFFgbBdfLFtlMxmeeuttwKBe/tt20Ap20o5Pps9wWsIQKBaAohbteTyVc9eXrulf//+gbBdeqm92pbtsnfv3kDgjhyxV+BkL8NNzHaP8B4CEKiEAOJWCa18PmvHjUw+//zzA2H76lftMJJ8lF27dgUC96tf2SEmsuNMmvPRM3oBAQh0RwBx645Qvn9vB0Te0atXr0DYrrrKjo/MV9mxY0cgcB9+aMdQyg6kvDNfPaQ3EIBAVwQQt/odF3ak/8yGhoZA2K6/3g78z2d54YUXAoE7dcouEpBdKXB3PntKryAAgZAA4lafY8EuYbvHur5p0yaNHm1XtOW7bN68WWPG2BVwQbFL4Vry3WN6B4H6JoC41V/87drsOdbtdevW6ZvftEu166M8/fTTmjDBLvEOil3r3VofPaeXEKg/AohbfcX8XknzrcurV6/WbbfdVl+9l7RmzRrdfvvtYb/vk/Rg3UGgwxCoAwKIWx0EudDF70laZN8vXbpUU6dOrZ+eF/V02bJlmjZtWvjTWZIerlsYdBwCOSWAuOU0sEXdukvSYvvZ4sWLdddd9p/1XZYsWaLp06eHEOybJfVNhN5DIF8EELd8xbOr3liKttR+sWjRIn3ve5bAUYzAww8/rFmzLHELiqVyyyADAQjkgwDilo84luqFLaqttl/Onz9f995rS26UKIEHH3xQ991nS29BscW4NRCCAASyTwBxy34MS/XAtkGus1/OmTNH8+bZJklKVwRaW1v1wAO2eTIotp3yaUhBAALZJoC4ZTt+pby3F9c22S/vueceLVxor7VRTkegpaVFDz1kr78FxV6I2wwxCEAguwQQt+zGrpTndtSIXfXSMHPmTD36qB1EQimHwN13363HHrMDTGRHmdhdcC+UU49nIAAB/wggbv7FpBaP7HBIE7Zed9xxh374Qzs6klIJgTvvvFM/+pEdQSk7jNIEbkcl9XkWAhDwgwDi5kccXHhhx/mbsJ0/efJkrVhhh/1TqiHQ3NyslSvtEgHZdQImcLuqsUMdCEAgPQKIW3rsXbZsF7CZsPW/5ZZbtHatXc9GqYXAxIkT9dRTdg2c7EI4E7i9tdijLgQgkCwBxC1Z3nG0Zldmm7BdNG7cOK1fbxdqU1wQGD9+vJ55xi7yll3pbQL3lgu72IAABOIngLjFzzjOFgYUhG2IXemyZcuWONuqS9ujRo0KrgRqv6l8f0HgDtclCDoNgYwRQNwyFrCIuxcUhO3ypqam4A/wOeeck93eeOr5xx9/HNwF19bWZh6+VhC4Y566i1sQgECBAOKWzaFwXkHYrrzyyisDYTvvPPsRJQ4Cx48fDwTulVdeMfP2PzZFeTyOtrAJAQi4IYC4ueGYpBVLz2yerOnyyy8PhO2CCyyJo8RJ4NixY4HAvfaaJW+yNM4E7uM428Q2BCBQPQHErXp2adW0hbWvDxkyJBC2AQNs2Y2SBIHDhw8HArd/vy2/Bf/AGJVEu7QBAQhUTgBxq5xZmjVsK+S4iy66KBC2iy+2jZKUJAm89dZbgcC9/bZtoJRtpRyfZPu0BQEIlEcAcSuPkw9P2ctrt/Tv3z8QtksvtVfbKGkQ2Lt3byBwR47YK3Cyl+EmpuEHbUIAAqUJIG7ZGB123Mjk888/PxC2r37VDiOhpElg165dgcD96ld2iInsOJPmNP2hbQhAoDMBxM3/EWEHRN7Rq1evQNiuusqOj6T4QGDHjh2BwH34oR1DKTuQ8k4f/MIHCEBAQtz8HgV2pP/MhoaGQNiuv94O/Kf4ROCFF14IBO7UKbtIQHalwN0++YcvEKhXAohb8pG3P37l3ENjl7DdY+5t2rRJo0fbFW3plaNHj+qKK67QE088oTFj7Lqz3xb7uZ3isWzZMtkf+n379oWHDpfl7O7du4NDnu2W8NDOsGHDyqpb6qHQ5uOPP16TnXIrb968OcrELoVrKbcuz0EAAvEQQNzi4VrK6pPtB/DaDdk7Jc2X9HyJB+3a7Dn2u3Xr1umb37Qq6ZZS4hb1yi5FrUTcPvjgA02fPl0LFiwINmfYWY52Nmat4mY+mS9Dhw7tJMRxEnz66ac1YYJd4h0Uu9a7Nc72sA0BCJyeAOKW/Ah5T1Kfwn1hu7sQuXsLP9Pq1at12223JeJhVJgsU1y0aJEsI3nzzTc1derUILu6+eabZUd9rVq1Sj179tS2bdtkuze7ytwse7r66qv10UcfBe/i7dy5U/369evUF2vHxNAEzjLTl19+Wddcc42WLl0aCEVjY2Pw0vR3vvMd2fqW+XPixIlOGZ75PXv27MDupEmTOrJGE2P7+eLFi3XuuecmwnDNmjW6/fbbw7buk/RgIg3TCAQg8DkCiFvyg8KmJS1r61Vo2nYjhCL3FUmL7Of2B95EJaliYmTt2eHLGzZsCI6aspu8LaMyoTN/rrvuukDc7K4zuzPOimVdxeIW/ZllYaUyOrNhImbTnNZ+mLmZYNoU6F133aWWlpagvvlVLG6hb/ZzKyaQs2bNCuxZVmhCc//99zvJBMuNg03PTps2LXx8lqSHy63LcxCAgDsC3YnbVjvmyV1zWCoQsGObik85th0JDfZ7yzbsD3uSJVw7+5u/+RstX75cdmbl7/7u7waZVZgVRdfcQsHqStxMFMOsLexDcfZWLD5diVu4vldK3GyNL8zawnai2VtUPJNkuWTJkiAbpUAgYwTsWLmRGfO5pLvdidtnYkel61gXZ242TWn3hP0/7UtsqWVu1kkTAxO1//iP/5DdDffYY4/p/fffD7KfMJuKCo4JXylxC7PA4qnIEKYrcTvdGl8a4kbm5vrjgr0ECeTq7z3iluDIKTQVrrlFRS26sSSVNTfzzTKkJ598UrfeemuQedjXnj17Ou6JKzdzM8ErNa0YXf/qbloyFFJbm5sxY0awbvfqq6/Kbsm29T6blgy/Hzx4cDAtaVOkNpWZxrQka27Jf5ho0SkBxM0pzvoyZrsl/7j96/VCpubVbslwE8jatWuDdatwXc3W2Ip3S55uWtKeL3dDie0GjdofNGhQx/peKG5h23ZwsW04ee+994JXD8L1vK42lFj7f/VXfxVsykliQwm7Jevrg5zT3iJuOQ1sUt3K5HtuccCJvgpQavqy2naTfBWA99yqjRL1PCOAuHkWkDy7k/sTSmzKMczeXAUyyayNE0pcRQ07HhBA3DwIQj25wNmSnkabsyU9DQxuVUsAcauWHPWqJsCtAFWji6diFm8F+Oyzz+yPV0XljDPO6G7TWUX2eNhrAoib1+HJr3Pc5+ZJbLN6nxvi5skA8tcNxM3f2OTeM27iTjnEWb6JG3FLefD43zzi5n+Mcu3hlvaDl78+ZMiQ4BocO/mDkgwBexXBrrfZv3+/NfhPkkYl07KbVhA3NxxzbAVxy3Fws9A1O7bL/rA2XX755YHAXXDBBVnwO9M+Hjt2LBA2O8i5nb0dU/R1SXaMWmbKiRMnPrMX3QcOHBgcfm1l48aNHWdxhodXh4di23uErLllJrwuHEXcXFDERk0EzisI3JV2XJYJ3Hnn2Y8ocRA4fvx4IGx2mLQk+x8TtuNxtBWnzai42Yvz0TM7w7Mw7efRE2H69+/PhpI4g+KXbcTNr3jUrTeWrlkGd7md1G8Cd845xWcx1y0bZx3/+OOPA2Fra7NkTZa2mbAdc9ZAgoZCcQuPKAuvNnrqqad0yy23dNyoEL2Advjw4YhbgjFKuSnELeUA0Px/EbAFNxO4IfYH2K6FobglYEJg/3CQZAttJmyH3baQnDXELTnWGW0Jccto4PLq9sUFgbvITvK3m6wpbgjY/XLPPPOMGXu7IGx2e0NmSylxs+PDmJbMbFhdOo64uaSJLScELi0IXH+bXrKDjym1EbDbBmy6TtKRgrDtrc1i+rVPJ27mHRtK0o9Ryh4gbikHgOa7JvDVgsCdb6f5r1hhh5pQqiHQ3Nwc3FQg6VcFYdtVjR3f6vAqgG8R8c4fxM27kOBQSOCqgsD1uuOOO/TDH9qxlJRKCNx555360Y9+ZFU+LAjbjkrq+/ws4uZzdLzwDXHzIgw4UYrA9QWBa5g5c6YefdQuFqCUQ+Duu+8Obh+XdKogbC+UUy8rzyBuWYlUan4ibqmhp+FyCYyWtMkevueee4L3mSinJ2C3dz/00EPhQ2MkbYYZBOqMAOJWZwHPane/KWmdOT9nzhzNmzcvq/2I3e/W1lY98MADYTsTJD0de6M0AAH/CCBu/sUEj0oQuE3Savvd/Pnzde+99wKqiMCDDz6o++67L/zp7ZLWAAkCdUoAcavTwGe121MlLTXnFy1apO9973tZ7Ydzvx9++OHgVI5CmSZpmfNGMAiB7BBA3LITKzwtELhL0mL7fvHixbrrLvvP+i5LlizpeHFZ0nRJS+qbCL2HgBA3BkEmCVjKtsg8X7p0qaZOtYSuPsuyZcs0bZolakGx1O3h+iRBryHQiQDixoDILAFbdJtv3q9evVq33WZLcvVV1qxZo9tvt6W1oNhi24P1RYDeQqAkAcSNwZFpArZtco71YN26dfrmN21TZX2Up59+WhMm2GbIoNj2yNb66Dm9hEBZBBC3sjDxkM8E7MW3e8xBu/bEzhTMe7HDgceMsdfXgmIvtLXkvc/0DwIVEkDcKgTG434SsKNLZjY0NARXulx/vR1sks/ywgsvBHeynTplB4/IjiC5O589pVcQqIkA4lYTPir7RMAOn7yjV69egcBddZUdTZmvsmPHjkDYPvzQjoqUHRp5Z756SG8g4IwA4uYMJYZ8IGDXB0w+//zzA4H76lftcoF8lF27dgXC9qtf2eH+smP+m/PRM3oBgVgIIG6xYMVomgTsArhb+vfvHwjcpZfa9XDZLnv37g2E7cgRu45NdjHbxGz3CO8h4JyAvQZju6dt/dmWKUJxs2l7W5e23dXB60NZLGd043SulDyLAUrQZ7vCe9xFF10UCNzFF9sF39ksb731ViBsb79tF2jLrtIen82e4DUEYiXQu/0Ag1+0757+tF3IPpHUR9L77a/HnC2pQdKX2t8DPRGrBzEaR9xihJtB01vsqpchQ4YEAjdgwIDMdeHw4cOBsO3fv998/ydJozLXCRyGQHIEHpFkJzqY0EXLXEmZPm0dcUtuEGWhpXMKgtB0+eWXBwJ3wQUXZMHvwMdjx44Fwvbaa6/Zf7YV7mT7ODMdwFEIJE/ARO0dSV+INP1rSRdmOWuzviBuyQ8m31s8ryBwV1555ZWBwJ13nv3I73L8+PFA2F555RVz1P7n65KO++013kHACwLF2VvmszbEzYtx5aUTlq7ZlN7lTU1NgcCdc44ldX6Wjz/+OBC2tjZL1mRpmwnbMT+9xSsIeEcgmr3lImtD3LwbY145ZAtuJnBDTDi2bLHlOD/LqFGjAgFu3/FpC20mbIf99BSvIOAtAcve7HYM2z2Z6bW2kDDTkt6ONS8csy2TphoXjRs3TuvX24ZKv8r48eP1zDO2IVK2NdKE7S2/PMQbCDgjYBlWv6IvV2sGNjVzk6TnJLlap7ZlgaNFX4ntvkTcnI273Bqyl95M4PrfcsstWrvWXonzo0ycOFFPPWWvsMleZjNh2+uHZ3gBAScEhhcE5xuSLmm/msmVkDlxrkojJnhvSHq2IKSvVmmn22qIW7eIeKB9INqxJSZw50+ePFkrVtihJumW5uZmrVxph47Ijh8xYduVrke0DgEnBCx7Cr8GRS3aMXn9+vXr9PXFL37RSaNxGHn33Xd19OjRTl+FY/CizR0oiJxljPblrCBuzlDm3pAdPGkC1+uOO+7QD39ox1KmU+6880796Ed2TKTswEgTth3peEKrEHBGwN41m91+1eLvhxYHDhyom266KfgaMWKE+vSxd6yzXd5//31t375dzz33XPB16NChaIf+TdICSctc9BJxc0GxfmzY1QEmcA0zZ87Uo4/aiT3JlrvvvluPPWYH+8uO+DdheyFZD2gNAk4J2AWDJmrDzOrw4cM7BO1rX/ua04Z8NPazn/2sQ+hefbVjhnJ3QeTW1eIz4lYLvfqsa5e/bbKu33PPPVq40K6GS6a0tLTooYfsyLug2OVsm5NpmVYg4JzAjQVRG2mWBw8erNmzZ8um2+u12HLHggUL9Oabb4YIthZE7vlqmCBu1VCjjl3fHfyras6cOZo3L/6dw62trXrgAbs8Oyj2r92nCQMEMkrALgoO/lVoa2j2jzabkaD8loDNzJjI2XpdodjBzh3/qi2XE+JWLimeKyZwW/v6wGr74fz583XvvXaAeDzlwQcf1H333Rcav13SmnhawioEYiewtHCWo+wfbDauzzrrrNgbzVoDv/nNb4K/K5F/ONs63LRK+oG4VUKLZ4sJ2CK4fVi1aNEife9733NO6OGHH9asWXYzR1BscDtZbHbuKAYhcHoCtvPRtveOMDGzKbhbb70VZt0QePLJJ4OpWhM7Sdvt7sn2L9th2W1B3LpFxAPdELhL0mJ7ZvHixbrrLvtPN2XJkiWaPt0OTQiKfbPEjWWsQCBRAk3t76nZC6IXfvnLXw6EzTaOUMojYBtN7BWkffv2WQU75NnuZgzO2jtdQdy6I8TvyyFgKVtwqeHSpUs1daoldLWVZcuWadq0jlkIS90ers0itSGQCoGLChlHfzvlx97NzMJB5KmQOk2jdjC6CVzhNCI7tGFE4VSikrUQN9+imF1/bNHNzqXT6tWrddtttiRXXVmzZo1uv92W1oJii20PVmeJWhBIlYBd+GlTaVeOHTtWGzZsSNWZPDR+8803a+PGjdYVu/nDBM5eCeqyIG55iLg/fbBtk3PMnXXr1umb37RNlZWVp59+WhMm2GbIoNj2yNbKLPA0BLwh8GObQrvsssuCF5d79y6+D9QbPzPjyIkTJ4IX2vfs2WM+21TvtxG3zIQv847aFmfb6qxNmzZp9Gh7La68snnzZo0ZY6+vBcW2/toWYAoEskjATtpo6du3byBsX/nKV7LYBy99/vnPf66rrrpK7733nvlnf2/sJfjPFTI3L8OXeafs6JKZDQ0NwVU0119vB5ucvrzwwgvBnWynTgWzDHYECS/+dAeN3/tKYJyk4AqNZ599NjhxhOKWgB3d9Y1v2HnSQRkvKbgaJFoQN7fMsfZfBOzwyTvssFcTOPuXVqmyY8eOQNgKh6raoZF3AhICGSZg50gN+8EPfhB9jSXD3fHTdXv96Pvf/745Z8d1fW77KeLmZ9zy4pVdHzD5/PPPDwTuq1+1ywU6l127dgXC9qtf2eH+wXtA9Xv+UF6iXt/9sH+Y/e0ll1yi/fvt7lxKnASGDBmiN96wG3T055I6neaOuMVJHttGwBZ9b+nfv38gcJdeatfD/bbs3bs3ELYjR2xnr+xiNnt/hQKBrBI4q6Gh4fCpU6d+p9Ydw1kFkLTf4c7qhoaG/zx16tSA9t3VwdveVhC3pKNRn+3Z+sO4iy66KBC4iy++WG+99VYgbG+/bRdoB/PlNm9OgUCWCQS7hUeOHKmXXnopy/3IlO/XXnuttm61M5Y7765G3DIVxkw7u8WuqLFpBBM4E7bCtI1doTMq0z3DeQhIfSX90q6DevHFF2V/cCnJELB/SFx33XXWmO1G+5KkYBsl4pYMf1qRzincBdd0+eWX67XXXjMmdoSO3cn2MYAgkHEC35G06oYbbtDzz1d1Q0vGu5+u+zfeeKN++tOfmhOTJP0D4pZuPOqx9fMKAndl4YQBE7bj9QiCPueOwD9K+pZd1/Ld7343d53zvUOPP/647AJlST+R9CeIm+8Ry6d/FxQOP71Q0rF8dpFe1RmBHmeeeeaHn3766dkHDhxQY2NjnXU//e4ePHhQgwYN0plnnvnJp59+2kvSSaYl049LPXrwWRlT4vXIhT5nk4BthvrfV155pf75n/85mz3Igdd/9Ed/pFdesSMn9cf2Ej3iloOgZrALiFsGg4bLJQn8L0lT7FLdv/zLvwRTSgT++q//Orw0ebmk/4G4pRSIOm8WcavzAZCz7h9uv0T3v9t7m5whmV5k//Vf/zV8j/b/SBqAuKUXi3puGXGr5+jnr+8n7RWATz75RHbLtk9l9+7duvrqq/XRRx8Fbl1zzTWyA8rPPfdc2e/s7sUtW7aoX79+PrldlS92W/fZZ59tde2VgB6IW1UYqVQjAcStRoBU94aAqcKRCy64QO+8Y5dE+1NCYVu7dm3HbRt24eehQ4cCgXvzzTdzJW5G/sILL9SxY8E+tf6Imz9jsZ48QdzqKdr57uswSa/+4R/+Yfjupje9tSunZsyYoZ07d3ZkZiZ448eP19///d/rz/7sz3T48GENGDAgeMaOwQuzvPBnltGZHTuk2K7vsQtXo7/zprMFR+wd2n/5l3+x/xqOuPkWnfrwB3GrjzjXQy/tAsKNdq2NXW/jUzl69KiuuOIK/fKXv9S2bds0bJjp8H+V6LSk/dSeveuuu9TS0qJohmdHW9lN4gsWLOj4nT2/cqWdc+5XsWtw7DocSWMRN79iUy/eVCRun332mT1fUznjjDO6G+s12ady3RK4w06jnzZtWpAN+VgWLlyo2bN/e59nz549O4QuKm6WtUXX38IMb/369UFGF80AfV6r+9M//VMtXbrUunpndx/4iv4I+RhYfPKSQEXjCnHzMoY49VsCre3/M3fOnDmaN8/OTfa7RKcqo4L26quvdhIwy/pGjRqlZcuWBeJm05JZ2IjS2tqqBx54wIIwF3Hzeyzm1TvELa+Rrb9+eZu5WcZmxaYZwxIVLftZmK1Vkrl1tZbnS9jJ3HyJRP36gbjVb+zz1nNv19yiU4vhepsJ3pIlSzo2kITiZkHpbs1t48aNwa5LW4+zwppb3oYy/XFBoCJxmzRp0mdDhw4N/gXa1SK47fiKriVE1xjC9609oeMAACAASURBVHp69+7d3SyFi35ho/4IeLtb0kJR/J5bdKdjuOHEnutut+T9998fRHbPnj2d3pXzLdzslvQtIvXnT0XitnHjxs/WrVsX/EvRhGvfvn1avHixRo8erVmzZgX/mgy3K9ti8oQJE4K1gsGDB3c8M3Zst5un6i8K9NgFAW/fc3PRObMRfrbCNTdXduOww3tucVDFZiUEKhK3I0eOfPbtb39bP/7xj4NdXyZew4cPD6ZRLGsLS5i92bUjq1at6vQvTHZLVhIenq2QgLcnlFTYjy4fz4q4cUKJi2hjo1YCFYmb7Za0eX47dd1OWzCRsxLu5ip+f8d+98EHHwRZ28svvxy8nzN79mymJWuNGvVLEeBsSQ/GBmdLehAEXFDF4mZrBzYFOXDgwGB6MhSv8L/DHVx2gsJf/MVfBAJopyuYKNp6HeLGqIuRALcCxAi3XNPcClAuKZ6Lk0DF4haKWbjGZs6FC+LFG0pM6OxEBStsKIkzjNguEOA+Nw+GAve5eRAEXKguc6vlBHPW3Bh1MRLgJu4Y4ZZjmpu4y6HEM0kQqChzs92S0bPtqnEQcauGGnUqIPCPkr5lm5m++93vVlCNR10QePzxxzVz5kwz9RNJf2LfdLfIXtEfIRdOYqMuCFQ0rjh+qy7GRNY7+R1Jq2644QY9//zzWe9L5vy/8cYb9dOf/tT8niTpHxC3zIUwNw5XJG656TUdyTOBvpJ+aZeWvvjii7r22mvz3Fev+vbSSy/puuuuM5/sktIvSXoPcfMqRHXlDOJWV+Gum87ayclzRo4cKfuDS0mGgP1Dwq7lkWQnJttB1kFhWjIZ/rTSmQDixojII4GzGhoaDp86dep3Vq9erdtuuy2PffSqT2vWrNHtt9+uhoaG/zx16tQASb9B3LwKUd05g7jVXcjrpsN3SvrbSy65RPv376+bTqfV0SFDhuiNN96w5v/c7tWL+kHmllZU6rtdxK2+45/33r/afiTjsB/84AfBwQOUeAjYHXPf//73zfhuScOLW0Hc4uGO1dMTQNwYIXkmME7Seuvgs88+q5tuuinPfU2lb88995y+8Y1vhG3bS/TPIG6phIJGiwggbgyJvBNYYPeE9u3bVzt27NCXv/zlvPc3sf7ZGZIjRozQe+8FmyLtRtbZXTVO5pZYSGgoQgBxYzjUAwE74XviZZddpu3bt6t379710OdY+3jixIlA2OxeOUlrJX27VIOIW6yhwHgJAogbQ6MeCDRI2i7pSjthxw71ptRG4Oabb5bdCC7pFUkjCu+2dWkUcauNNbWrI4C4VceNWtkjcFFB4PqPGzcuuNHivPPOy14vUvb4+PHjwQ0fzzwTLK0dKQjb26dzC3FLOWh12jziVqeBr9NuNxWm0C6065dM4OyyXUp5BF599VU1Nzfr5z//uVV4x6Z6JbV1Vxtx644Qv4+DAOIWB1Vs+kxgkKSVlnGcddZZWrFihW699Vaf/fXCtyeffDIQNrtlu5ABT5Z0oBznELdyKPGMawKIm2ui2MsKgaWSppqzra2tuu+++2RiR+lMwMRs/vz5mjfPTjQLyjJJ0yrhhLhVQotnXRFA3FyRxE4WCdxT2MIe3BY/e/bs8LqWLPbFuc+PPvqoFi5cGFxGXCgtkh6qtCHErVJiPO+CAOLmgiI2skzgxsL7WSOtE4MHDw5Ezqbg6rXYVO2CBQv05ptvhgjsNGR7X7CqO4QQt3odSen2G3FLlz+t+0PgWwWR+7/MJdtoYiea2NfXvvY1f7yMyZOf/exnstNG7Ms2jhSKHadlL2fbxaNVF8StanRUrIEA4lYDPKrmkoCtw9lJG78f9m7gwIEdQmcvLvfp0yfzHX///feDF9pDQTt06FC0T/9WyNRsfa3mgrjVjBADVRBA3KqARpW6IGAHUYZftsOyo/Tq1StYo4t+ffGLX/QWyrvvvhusm0W/Pvzww2J/befjc5EvZ/1B3JyhxFAFBBC3CmDxaN0SsJfhTOjshOBLJOXh7e/j7e+p2R01zxYErWMu0nWUETfXRLFXDgHErRxKPAOBzgTscMp+RV+uBO+cgpBaFvWxI/AmZLblMfp1wpHtbs0gbt0i4oEYCCBuMUDFJARqINAqyV5RsC33HS+X1WAv9aqIW+ohqEsHELe6DDud9pSAZYR2rNUX2q/p+XX7TeIXSkosw4qLCeIWF1nsno4A4sb4gIA/BCxrsyvDTeRM1BblIXtD3PwZYPXkCeJWT9Gmrz4TiGZtoZ+5yN4QN5+HXX59Q9zyG1t6li0C0awt9DwX2Rvilq2BmBdvEbe8RJJ+ZJmAZW2/LFz4+Ykke0v8/2vfVNJT0pmS/luW194QtywPzez6jrhlN3Z4nh8Cts42v30TiR1M/Gj7RQXh59J2S/7f7aJ3f2H9LZM9RtwyGbbMO424ZT6EdCCHBHL1uUTccjhCM9ClXH2IMsAbFyFQDoFcfS4Rt3JCzjOuCeTqQ+QaDvYgkBKBXH0uEbeURlGdNVtqbv/uwokI92Z5br/OYkl380sAcctvbOlZTARsV9YvJH0qKdyV9b6ksyU1SPpSlndlxcQMsxBImgDiljRx2ssFgUck2Z1VJnTRMjcPpyHkIkJ0ot4JIG71PgLof1UEcnsSQlU0qAQB/wggbv7FBI8yQqA4eyNry0jgcLMuCCBudRFmOhkHgVyePh4HKGxCIAUCiFsK0GkyPwQse5teOBkhF/dG5Sc09KTOCSBudT4A8tr9Rknh18AYOxnHjb8xunta04ckHZTUlpYDtAsBhwQQN4cwMZU+ARO0ye1u2PoXpToCJnCWha6orjq1IOAFAcTNizDghAsCdt1Fh6g1NjaqqalJ9v+U7gkcPHhQ9tXW1qYePXr8+8mTJ79DFtc9N57wlgDi5m1ocKwSAlvb/xA3WYW5c+dq8uTJiFol9CLPTpkyRStWBEkbuz+rZEg1Lwggbl6EASdqIdCRsW3dujXI1ijVEzBhM4ErTEsG31AgkEECiFsGg4bL/0XAlMyyNiFsbobFyJEjg6lJSSOZlnTDFCupEEDcUsFOo64IBNORNhXZ2moJHKUWArbmNmjQoNBEdweR19IUdSEQNwHELW7C2I+NQLOk5bZh5MCBA7E1Uk+GI1mbLboxJVlPwc9fXxG3/MW0bnpkita4fPlyNTebzlFqIWBTkSZuhWLpm70SQIFAVgkgblmNXJ37TdbmeACQtTkGirm0CSBuaUeA9qsiQNZWFbauK5G1OYSJKV8IIG6+RAI/yiZA1lY2qvIeJGsrjxNPZYoA4papcOGsESBrczgOyNocwsSUTwQQN5+igS/dEiBr6xZRZQ+QtVXGi6czQwBxy0yocLQja+OFbTeDgazNDUeseEkAcfMyLDjVFYEga7PjtUzcKLUTIGurnSEWvCWAuHkbGhwrJhCstZG1uRkYRVkbp5G4wYoVfwggbv7EAk9OQ4CszfHwiGRtnP7vmC3mvCCAuHkRBpzojgBZW3eEKvg9WVsFsHg0qwQQt6xGro78JmtzHGyyNsdAMecjAcTNx6jgUycCZG0OBwRZm0OYmPKZAOLmc3TwTd5lbbt379bUqVO1ZcsW9evXL3MhImvLXMhwuDoCiFt13KiVEAHvsrYsixtZW0KjlmZ8IIC4+RAFfOiSQNVZ26ZNm3T//fcHRvfs2aOePXtq27ZtGjx4sEaPHq1Zs2ZpzJgxOnr0qEaNGqVly5YFz1pGNmLECD3xxBNBnbVr12rGjBk6fPiwJk2apJUrVyoUt+hzZnvYsGGBDWt77NixwffXXHONNm/eHHxv7b777rt6/fXX9f+3d/6xWVXZ3l8Gcs0VUMPccENzw6+EKCY4IUICGcSiTCJvACHWab3wQgnMaKgDCgllYGwpM/AKSfFKaIOTNoCBKLEEoeSFP6qgkEjCGCIkoCERwRvI5c44DqBzuS9e3n633c+cPvbp8+uc/ePs707UUs7Za63v2s/zce2zz96HDh1S9tEWLVokVVVVmT9Hlejv70oZM6zaSlGN93iqAOHmaeJCcLvkqk0DBhDBFzrAMnLkSGlpaekXbtOmTZOGhgapr69X0Ono6FBQRJs3b54cOHBA/YzrACTAbvPmzWqKEhD7/PPPM9dpkEbt4mfcUyjA4oQbq7YQPjKMMaIA4cbh4KQCJVdtunpCxXXq1Cn1XAwAOn/+fF64aYChCtP3AEbZFV70uujfdXV1ZUA3ePBgVcU1NzfLvn37pLq6WlWJACfumTx5sqoIow2VXltbmzz11FN9/h0Ain5LaazaSlGN93isAOHmcfLS7DoGptpmC9ttFds0VDQMCoVbdKFIf3CLXpcNtzVr1vRyd8SIEfL+++/L0qVLM9Ohpis3Vm3FjqCgr8fedsV/6NyT7LiIZI6Wd8+94jzKt4VQqkhenDReXd3Y7e36cvaQLBRueH4WnW4sFG7Ryi3aByo3VIjZU4+3bt3qNR1qGm6Rqm1x9xZmu7waDXTWtAL8njSteAH2CLcCRPLgkrKqNj0tienAXJWbfvaF6mzDhg2Z52qFwi36bC7XMzdMbeKZ2eXLlzPTknohi8kcsGozqXYqbBFuDqaRcHMwKUW6VHbV1h/c9GpHwOm7775TKyFPnDjRa7Wkfn8t37SkXi2JaUf9bE/b1qsl9d8NGTIkZ+VWpD5FX86qrWjJQr+BcHNwBBBuDialSJfKrtqKtJfqy3ft2iWLF2MmUrV8n49Ua8HgClaAcCtYKnMX5vvwMmnmclGKpViqtlIMp/UeVm1pzWyicfF7MlF5S+uccCtNN1fuYtUWYyZYtcUoZlhdEW4O5ptwczApBbrEqq1AoQq9jFVboUrxuiwFCDcHhwTh5mBSCnSJVVuBQhVyGau2QlTiNTkUINwcHBqEm4NJKcAlVm0FiFTMJazailGL17Jyc38MEG7u56gvD1m1xZg3Vm0xihlmV6zcHMw74eZgUvK4tFNEamtra2XnTvzIVq4CrNrKVTD4+wk3B4cA4eZgUvK4xKotxpxFqrYvRWR0jF2zq3AUINwczDXh5mBS+nGJVVvM+WLVFrOgYXZHuDmYd8LNwaT04xKrthjzxaotRjHD7opwczD/hJuDScnhEqu2mHM1evRo+fJLzEYKd/6PWdvAuiPcHEw44eZgUnK4xKotxlyxaotRTHZFuDk4Bgg3B5PSh0us2mLOE6u2mAUNuzvCzcH8E24OJqUPl1i1xZgnVm0xismuoADh5uA4INwcTEqWS6zaYs4Rq7aYBWV3hJuDY4BwczApWS5dEpFRly5dklGjRrnvreMeNjU1yfr16+El32tzPFceuUe4OZgsws3BpERcqhWRndyNJJ4kHT9+XPBeW0/DD8fj6Zm9BK4A4ebgACDcHExKxCU1JYlttgA4ttIVyAIbSrem0nvjnVSglwKEm4MDgnBzMCkRl9Tu/6zcSk8S3mPbvXu3nopER6jWMuVb6T3zTiqQUYBwc3AwEG4OJiXiUqWIHMOf8bytsrKSz90KzBeghn9QsUUaK7YC9eNlRSlAuBUll5mLCTczOpdjZdTAgQNP3Llz51/K6STwewG13T2LSAKXguEnoADhloCo5XZJuJWroJn79TJJVHJoI82YTcwKYKOWLCbYLvfAjItGEhSZXSsFCDcHBwLh5mBSAnCJXwYBJDmgEDmeHUw24eZgUgJwiV8GASQ5oBA5nh1MNuHmYFICcIlfBgEkOaAQOZ4dTDbh5mBSAnCJXwYBJDmgEDmeHUw24eZgUgJwiV8GASQ5oBA5nh1MNuHmYFICcIlfBgEkOaAQOZ4dTDbh5mBSAnCJXwYBJDmgEDmeHUw24eZgUgJwiV8GASQ5oBA5nh1MNuHmYFICcIlfBgEkOaAQOZ4dTDbh5mBSAnCJXwYBJDmgEDmeHUw24eZgUgJwiV8GASQ5oBA5nh1MNuHmYFICcIlfBgEkOaAQOZ4dTDbh5mBSAnCJXwYBJDmgEDmeHUw24eZgUgJwiV8GASQ5oBA5nh1MNuHmYFICcIlfBgEkOaAQOZ4dTDbh5mBSAnCJXwYBJDmgEDmeHUw24eZgUgJwiV8GASQ5oBA5nh1MNuHmYFICcIlfBgEkucQQp4vIT0XkgRLvt3GbiZPl44zrryLyqYgci7NT1/oi3FzLSBj+EG5h5LmYKF8WkVdEZEQxN/HashS40v0/Ea+LyL+V1YujNxNujiYm5W4RbilPcBHhDRSRDhF5BveMHz9eHn/8cRk2bFgRXfDSYhS4fv26nDhxQs6dO6dvOygiVSJyp5h+XL+WcHM9Q+n0j3BLZ15Lieo9gG348OGybds2qarCdyybCQU6Ojpk+fLlcu3aNZgD4OaasGvKBuFmSmnaiSpAuHE8QAFMRb4OsH3wwQfy8MMPUxXDCnz22Wfy5JNPasBhWjg1U5SEm+HBRHNKAcKNAwEKXMYztnfffZcVm8XxgAruueeegwd4BjfSoiuxmibcYpWTnRWoAOFWoFApvgyrIj/AM7azZ8+mOEw/Qnv00Uf1M7gn07KKknDzY+ylzUvCLW0ZLT4eNSW5bNkyaWlpKf5u3hGrAnV1ddLa2oo+UzM1SbjFOkTYWYEKEG4FCpXiyxq7Y1vf3aSxET+y2VSgqakJyYAL+FeTTV/isk24xaUk+ylGAcKtGLXSeS3h5lBeCTeHkkFXvFaAcPM6fbE4T7jFImM8nRBu8ejIXqgA4cYxQLg5NAYIN4eSQVe8VoBw8zp9sThPuMUiYzydEG7x6MheqADhxjFAuDk0Bgg3h5JBV7xWgHDzOn2xOE+4xSJjPJ0QbvHoyF6oAOHGMUC4OTQGCDeHkkFXvFaAcPM6fbE4T7jFImM8nRBu8ejIXqgA4cYxQLg5NAYIN4eSQVe8VoBw8zp9sThPuMUiYzydEG7x6MheqADhxjFAuDk0Bgg3h5JBV7xWgHDzOn2xOE+4xSJjPJ0QbvHoyF6oAOHGMUC4OTQGCDeHkkFXvFaAcPM6fQU7v0pE/iAiN/u4wzm4Xbt2TWbOnCnt7e3y2GOPFRxkvgvR7+TJk2X79u0ye/bsfJdb+XvCzYrsNJpCBQi3FCa1j5D+q/v4FJw8goPCGrIgR7g5NAYIN4eSQVe8VoBw8zp9BTu/QkT+j4jcEZGBIvJmBHLOwm3UqFFy8OBBue++++Sjjz6SiooKVdHh92fOnJFTp07JW2+9JWvWrFFCLFy4UHbv3q1+7uzslDlz5mQEOnTokEycODFTuaGvadOmSUNDg9TX1xcsZNIXEm5JK8z+Q1GAcAsl0yLfdJ+4/UBPuJie1JD7m4j8xqXDSvX0YWVlpYLV5s2b5ciRI9LW1iZPPfWU4NRwAAkAa25ulsOHD6uwZs2aJatWrVJTjvg7PfWI+8+fPy+vvfaagttvfvMb2bFjR+zTnnEMJcItDhXZBxUQIdzMjwI8RNorIg+ZN/0ji/9PRM6LyE9dhJt+NvbJJ5/IkiVLZNeuXfLMM89knpkBWrpq05Hlqt7wew23K1euqJ9dqti0/4SbA58KupAKBQg382kE3DAtONGw6WjlBtOo2DZ3T1fe62rlVgjcUJHpqUit561bt1QVh4aqrqWlhZWb4cEWNYeHvf01fglZTE6KTXNcmU+uDbjpZ27/GIHa1p6FJU4+c8P0Ya5pSQ09TD3W1NSo53EPPfSQAhqeydXV1WWmKKdPn65+HjlyZKZyw/1oekpz8ODB5kdBDous3JxJBR3xXAHCzXwCbcDttvwwBY1FJRpqOnKn4YYFI9EFJdlL+aNTk9EpSf173PvKK6/IyZMnM8/sADcNPcDQpelJws38B5IW06kA4WY+rzbg5tV7buZT4o5Fws2dXNATvxUg3Mznzwbc+ovSucrNfErcsUi4uZMLeuK3AoSb+fwRbuY198Yi4eZNquio4woQbuYTRLiZ19wbi4SbN6mio44rQLiZTxDhZl5zbywSbt6kio46rgDhZj5BhJt5zb2xSLh5kyo66rgChJv5BBFu5jX3xiLh5k2q6KjjChBu5hNEuJnX3BuLhJs3qaKjjitAuJlPEOFmXnNvLBJu3qSKjjquAOFmPkGEm3nNvbFIuHmTKjrquAKEm/kEEW7mNffGIuHmTaroqOMKEG7mE0S4mdfcG4uEmzepoqOOK0C4mU8Q4WZec28sEm7epIqOOqYANtDd2H3sSb2IvNGzUzyOW8KRKFtEZC1OAnHM57S5Q7ilLaMxxkO4xSgmuwpKgSEi8p8i8j/dIPtvEXlARP4qIv8gIgNE5J96zvgKShTDwRJuhgX3yRzh5lO26KtrCrwuIku6KzSALtrWi0iTa86m0B/X4PZy9//kvL5s2TJ1YjWbXQVw0GprayuceEVE/s2uN/FY50nc8ejIXvIrAKj9h4jgVGbd/iYi/8yqLb94MVzhGtymi8gH48ePl7Nnz8YQHrsoR4FHH31Uzp07hy6eFJFj5fTlyr2EmyuZCMOP7OqNVZu5vLsGN0R+WURGvPvuu1JVVWVOCVrqpUBHR4c899xz+N0VERmZFnkIt7Rk0o84otUbqzazOXMRbmpqcvjw4fLBBx/Iww8/bFYRWpPPPvtMnnzySbl27VqqpiQRDOHGAW5aAVRvdT2rJ/mszZz6LsIN0b8nIs8AcNu2bWMFZ248CCq25cuXa7AdFJG5Bs0nbopwS1xibwyMEhH9T5JTE/eKyP8Skf8rIre9UadvRzGt9qWIHPcgDlfhNlBEOgA4aIhncI8//rgMGzbMA0n9dPH69ety4sQJ/YwNQQBsmBe+42dEfXtNuKUpm6XFAqAt6r4Vz7/YSlMAgEMVuqu0243c5SrcdPCYosRKvRFG1KARKIBnbJhJScXqyOyUEm5hD/LGKNRGjRollZWVgv+y5Vfgyy+/FPxz/PhxGThw4L/fuXPnfztcxbkONy04VlH+tOddyPxJ4BWlKIB3TD9Ny6rIXAIQbqUMjXTcg+W+lQhl/fr1smjRIkKtxLwuXrxYdu1SRZvLqz99gVuJWeBtVKC3AoRbmCMiU7EdO3ZMVWtspSsAsAFwPdOS6gcHG+HmYFLoUnIKEG7JaetqzyCZekmTYIsnRdOnT1dTkyKCKTVXF5cQbvGkm714ogDh5kmiYnRTTUdiKrKxEQUcWzkK4Jnb6NGjdRf5Pk/lmCr3XsKtXAV5v1cK5Psw8mgSr9KZ19na7h0IdmLByKVLl/JeXOwFn3zyiSxZskSOHDkieG8p7obngo888ojU1+NwgR8aXj6dOXOmtLe3y2OP4fvbbItUbXjo5uqUJEQh3MwODVqzrADhZjkBhs2DaKN27twptbXgXLzNNNwAtsmTJ8uf/vQn+eijj4zDDVORgFtPQ/mGVwJcbYSbq5mhX4koQLglIquTnaqqbfDgwfLb3/5WVT+3bt2SWbNmyapVq2T27NnS2dkpc+bMUc6PGDFCTp06pSowfd2HH36o/u7QoUOZ67Gb+J///GeZNGmS/O53v5Nf//rXqnIbMmSI6nvkyJHy1ltvqfsWLlwou3fvVnaam5vlwQcflIMHD/ayFa3Oov6dP39e1qxZo/p57bXXZMaMGTJt2jTVz44dO6xUbh5VbazcnPxI0qkkFSDcklTXrb5V1fazn/1MgSkbbhMnTuw1vbd582blPa4DcNA0mGpqalSldPXqVdE/Y0owWrlpuOG+w4cPq8Ur0fsAUUAqu/9ccIPPxU5LZkNZp+OJJ55QPgH0pTbPqjbCrdRE8z5vFSDcvE1dUY5nnrWh2tHPraKVUTbcdO966m/79u0KitF7cM1LL72UqfD6ghuehwFg0WdjgGKu+1Cd9eVfKXArSqEiL/asaiPciswvL/dfAcLN/xwWEkHmWRsqqFzwAJwAv++++050dXPz5k31XOvKFezU8/eGqgv9YFpQV0F9wU1PeWbDLdd9PsDNw6qNcCvkU8JrUqUA4ZaqdPYZTK8VktGpveyqLHo3piXxnAsQy7UaUT87KwVu0coN/eg/R+GW7Z8r05IeVm2EW/o/54wwSwHCLf1DQlVt+oVtAOLy5cuZ52B49oUFIhUVFb2W8ed65qaru3feeUcpV2rlpu3q6Ub0hWd6ufxzZVrS06qNcEv/55wREm5BjQFVtWF7LcANTVdDmGZ85pln5JtvvsmslgTQ9IrE6KKL7IUZeiFIOZXbq6++qvz59NNPM1OgWOBRiH/avo7H5HtunlZthFtQH3sGCwVYuaV7HPSq2lwJNRuKrviVz4+sqi3fZydfd6b/nu+5mVac9qwqkO8Dyh1KrKanLOM/qtrK6i3Gm32FW6Rqc3n3/1yZItxiHMPsyn0FCDf3c1Sqh05WbaUGY/s+z6s2TkvaHkC0b1wBws245EYMOlu1GYk+ASOeV22EWwJjgl26rQDh5nZ+SvWOVVupyvVxXwqqNsItxvHArvxQgHDzI0/FeGm9auvrfbRiAujv2lybM+v38vA6QdwtBVUb4Rb3oGB/zitAuDmfoqIdtF61mYabfoVBb8xctGL93JCSqo1wi3NQsC8vFCDcvEhTwU4WVLVlVz/R1YuwhN389QkA0XfKoqcG6Pfg9PV/+ctf5OzZs+qF8I6OjswWX7gn+k7bfffdpzZdfuihh5SdqVOnyuuvv662/NK2cvnX1tYmTz31lNoKTJ9agPfy8FI6+vnqq6/Ui+BxtpRUbYRbnIOCfXmhAOHmRZoKdrKgqq0/uLW0tKhttwAJvFD9/PPPy9tvv61OAJg3b54cOHAgAyYcZ4Pr9dE2GizRyk0DEdADKPS1+j4cmoqjdaL9I9rooadR+H7++ed9HoiaxLRkiqo2wq3gjxAvTIsChFtaMilSUNWGcAuFW1QawAPntOl9JDVw9u3bJ9XV1Wr/SX1CdjbcovtIaghpuPV1H85qcwFuKaraCLf0fM4ZSYEKEG4FCuXBZXjhXm2zhe22+mv9wQ1bYAFO+oBRfTBpdGsu3TemBt9//31ZunRpZgsv/F023KL7T2bDTZ8aEL0v1sEwbwAAIABJREFUbrhF4yn0uVzKqjbCzYMPMF2MVwHCLV49bfXW2G14fXQPyWLgll2V6Xujx9R0dXVlpiujfWef5l0s3HTlpvvBn7PhFvXP1LRkpGpb3L3x9C5biY3RLncoiVFMduW+AoSb+zkqxMOCqzY9LYlz27Czv34Oht9jyrGuri6zGCTXMzecuq1379fTkn1VYJimzN5qK7ty03YBLf1MD7/L5Z8JuKWwamPlVsiniNekSgHCzf90FlW16XD1NCNWL77yyity8uRJBbfsw0n1tCTui66W1KsVhwwZohaJlAo3LErJngKFrXz+4RosRBk+fLgKKc4FJSms2gg3/z/njKBIBQi3IgVz8PKiqjZX/O9rOtMF33bt2iWLF2MmUrV8nw8XXC7UB05LFqoUr0uFAvk+vDwVwO00l1S1uRCSq3BLadXGys2FQU8fjCpAuBmVO3ZjXlZtsasQU4cprtoIt5jGCLvxRwHCzZ9cZXvqbdXmquQprtoIN1cHHf1KTAHCLTFpE++YVVuMEqe8aiPcYhwr7MoPBQg3P/LEqi3hPKW8aiPcEh4/7N49BQg393JSiEfeVG3RF8HxflzcLbobil6kojd91ps7Y9eV/loAVRvhFvfAY3/OK0C4OZ+iHzm4U0Rqa2trZedO/Oh2Mwk3vOuGhpfHozue6D0vcykVQNVGuLn9MaF3CShAuCUgasJdxl615dpFBLv89/XiNl6czq6S9Mve2LcSO42g3XPPPXLw4EGQWNrb23udJqBf3NZ7Per9Lh9//HHZvn276KNxUO3l8u+RRx4RHHmDFj2aR+ufa1uxaH4iVduXIjI64dzZ7J7vudlUn7aNK0C4GZe8LIOJVG254AFgYK9HgAmQiVZGmA5E0wCsqalR57Sh6a2zZs+erY7N0X3oM9xwDXZDwSbP2fdVVVWpPqNgwnV9bb6M6/o7GDXqY+BVGyu3sj52vNlHBQg3v7IWe9WG8AuFm5YKwJo8ebKqsACw6AvZFRUVmT0iAcS+4KY3S47+HfrWe0tm34ez3oqFG2KKHrXTV5oDqtoIN78+5/Q2BgUItxhENNRFIlVbf3BDZYTpQlRiOClbL9DI3n9Sx49KL3tH/77gpvehzIZb9Ay36N8VCzeATVeE/S1iGT16tHz5JWYjJS07//c3FDktaeiDSjNuKEC4uZGHQrxIpGrrC265pvP05sTZ05VR57PPiisGbtHKTT+7w8nf2XCL+pc9LVlIxQZ/A6vaWLkV8gnjNalSgHDzI52JVW0abrrSwbQiphxxNtzy5ct7nYid65mbru5whA7uz1WB6WduuSo3VIgNDQ1qtWP2M7e+/Mt+5lYo2BBzYFUb4ebH55xexqgA4RajmAl2lVjVpn3Wp1XjKJs5c+bIjRs3Mgs79IrE6Htj2asl9WrFcio3QPHBBx8UvKemj9TRR9rk8w/2z58/nzk+R8fV17tuAVZthFuCH0527aYChJubeYl6lWjV5kr42VBM0q8AqzbCLckBxb6dVIBwczItvZy61P2IaNSlS5dk1KhR7ntbooem4NbU1CTr16+Hl2l/ry07E1xQUuLY5G1+KkC4uZ23WhHZ6ctuJG5LKXL8+HHBbiQ9DT8cd93nGP0j3GIUk125r0CQcLt79656hlVMuwfbbZhvakoS22wBcGylK5AFNpRuTaX3lsydpYzLbE/6GaeEWzJpY6+OKpDvCzuVJ3GX8iViCW7qzDZWbqV/evAeG1ZV9kxFoiNUa5nyrfSe47+zlHFJuMWfB/aYDgUItwLzaAlulSJyDC7ieRuW56f5uVuBqSjoMkAN/6BiizQnKzbtH+FWUGp5ERUoSAHCrSCZ1CbA+bQqsKeiLxs1cODAE3fu3PmXou/kDVoBQG13zyISZ1Uh3JxNDR3zUIF8X9ipnJa8efPm3VmzZsnIkSMz70XpXe2j729Fd6a3CDdVuPWMLVRyaCM9HGvZFZRasphgu9wDM28WjSxcuPAuTjrAS+zR1aPQCC/WX7lypddpCXjRPfsdxCFDhuT6TPOZW4KDjV27p0DwcMvegb6urk5lSe92rzffraioyKeVe9l116NU/k9TuXIfOnTobkdHR+blebyU3tLSIvgfMb2ri97kuq2tTXCCQvQoIVwzZ84cwq3cRPD+VCiQ7ws7lV9CunLTu9PrL4x9+/ZJdXV15oskui/ixIkT82mVigFhKIhUjqtytbt69erd559/Xt5++21VkQFeEydOzFRtun89o7Bt2zY18xDdhYWrJcvNAu9PiwL5vrBT+SVEuFkfvqkcV+Wqimdu2GZsypQpgn06ATm06Jl62Tai0+jYgmzNmjWs3MpNBO9PhQKEW319r/PMOC1pZFwTbn3IDLjhWRumF/E8GFPjGl76z3pzaJxw/vLLLysAYv9NfToC4WZk/NKIBwoQbllwQ87wjAOb9zq0oMSDoVSUi4RbDrhFD37FQbBo+nDY7AUlAB02uUbTU5NcUFLUOOTFKVYgSLiVsuTa8mrJtA1Bwq2fyi16ZFCxieczt2IV4/VpVYBwKzCzhFuBQhV2GeHWh05YLYlKTB8fVJiUva8i3EpRjfekUQHCrcCsEm4FClXYZYRbjsqtMPlyX0W4lasg70+LAkHCLS3J8zgOws188vgSt3nNadGiAoSbRfEDNk24mU8+4WZec1q0qADhZlH8gE0TbuaTT7iZ15wWLSpAuFkUP2DThJv55BNu5jWnRYsKEG4WxQ/YNOFmPvmEm3nNadGiAoSbRfEDNk24mU8+4WZec1q0qADhZlH8gE0TbuaTT7iZ15wWLSpAuFkUP2DThJv55BNu5jWnRYsKEG4WxQ/YNOFmPvmEm3nNadGiAoSbRfEDNk24mU8+4WZec1q0qADhZlH8gE0TbuaTT7iZ15wWLSpAuFkUP2DThJv55BNu5jWnRYsKEG4WxQ/YNOFmPvmEm3nNadGiAoSbRfEDNk24mU8+4WZec1q0qADhZlH8gE0TbuaTT7iZ15wWLSpAuFkUP2DThJv55BNu5jWnRYsKEG4WxQ/YNOFmPvmEm3nNadGiAoSbRfEDNk24mU8+4WZec1q0qADhZlH8gE0TbuaTT7iZ15wWLSpAuFkUP2DThJv55BNu5jWnRYsKEG4WxQ/YNOFmPvmEm3nNadGiAoSbRfEDNk24mU8+4WZec1q0qADhZlH8gE0TbuaTT7iZ15wWLSpAuFkUP2DThJv55BNu5jWnRYsKEG4WxQ/YNOFmPvmEm3nNadGiAoSbRfEDNk24mU8+4WZec1q0qADhZlH8gE0TbuaTT7iZ15wWLSpAuFkUP2DThJv55BNu5jWnRYsKEG4WxQ/YNOFmPvmEm3nNadGiAoSbRfEDNk24mU8+4WZec1q0qADhZlH8gE0TbuaTT7iZ15wWLSpAuFkUP2DThJv55BNu5jWnRYsKEG4WxQ/YNOFmPvmEm3nNadGiAoSbRfEDNk24mU8+4WZec1q0qADhZlH8gE0TbuaTT7iZ15wWLSpAuFkUP2DThJv55BNu5jWnRYsKEG4WxQ/YNOFmPvmEm3nNadGiAoSbRfEDNk24mU8+4WZec1q0qADhZlH8gE0TbuaTT7iZ15wWLSpAuFkUP2DThJv55BNu5jWnRYsKEG4WxQ/YNOFmPvmEm3nNadGiAoSbRfEDNk24mU8+4WZec1q0qADhZlH8gEyvEpGNIlIvIm+IiIbbChHZIiJrRaQ5ID1shEq42VCdNq0pQLhZkz4ow0NE5D9F5H+6QfbfIvKAiPxVRP5BRAaIyD+JyM2gFDEfLOFmXnNatKgA4WZR/MBMvy4iS7orNIAu2taLSFNgWtgIl3CzoTptWlOAcLMmfXCGAbX/EJF/jET+NxH5Z1ZtRsYC4WZEZhpxRQHCzZVMhOFHdvXGqs1c3gk3c1rTkgMKEG4OJCEgF6LVG6s2s4kn3MzqTWuWFSDcLCcgQPOo3l4Skd/zWZvR7BNuRuWmMdsKEG62MxCe/TEiclpEJonIF+GFby1iws2a9DRsQwHCzYbq4dq8X0SOisgUEflYRJ4WkRvhymE0csLNqNw0ZlsBws12BsKxf28P2ConTJggZ86cQeTHewB3OxwZrEVKuFmTnoZtKEC42VA9TJtHALJx48bJ0aNH5emnn5YLFy5ACVRyM8OUxGjUhJtRuWnMtgKEm+0MhGH/gIjMHTNmjALb2LFj5eLFiwpwX3yhHru9JyLzwpDCWpSEmzXpadiGAoSbDdXDsvmOiFRXVFQosI0fPz4T/blz5xTgrl69it/tE5GasKQxGi3hZlRuGrOtAOFmOwPptr9LRBYNHTpUgW3SJCyQ7N1Onz6tAPf111/jL3aLSG26JbEWHeFmTXoatqEA4WZD9TBs7hCRFwYNGqTANnXq1JxRnzx5UgHu22+/xTVvisiLYUhkNErCzajcNGZbAcLNdgbSaR/H2iwfMGCAAtuMGTPyRtnV1aUA9/333+PabSKC43DY4lOAcItPS/bkgQKEmwdJ8szFzSKyGj53dnbKrFmzCnb/8OHDMnv2bH09znnD+W9s8ShAuMWjI3vxRAHCzZNEeeImjq5pgK8dHR3y7LPPFu32/v37paqqSt+3oftg08aiO+ENfSlAuHFcBKUA4RZUuhMNFqdp47Rt2bNnj8yfP79kY3v37pUFCxbo+9d1H2q6qeTOeKNWgHDjWAhKAcItqHQnFuzK7kNIm9F7W1ubLFmCM0nLa+3t7bJ06VLdySoR2Vpej8HfTbgFPwTCEoBwCyvfSUS7TERa0HFLS4ssW4Y/xtNaW1ulrq5Od4YfWuPpOcheCLcg0x5u0IRbuLmPI3KUaG3oqLm5WVauRAEXb9u6dausWoXCTTWUcu3xWgimN8ItmFQzUChAuHEclKoAHqrtwc0bN26UtWvxyC2ZtmnTJlm3Do/eVMPDuL3JWEp1r4RbqtPL4LIVINw4JkpRAMsgO3BjQ0ODNDVhkWSyrbGxUTZswOJJ1bCccn+yFlPXO+GWupQyoP4UINw4PopVAC+udeKm1atXy+bNeK3NTKuvr5ctW/D6m2p4Ie6wGcupsEK4pSKNDKJQBQi3QpXidVAAW43giJoBy5cvlzfewEYkZtuKFStk2zZsYCLYygSHnXaZ9cBba4Sbt6mj46UoQLiVolqY92BzSIBt0AsvvCA7dmDrSDvtxRdflDffxBaUgs0oAbiTdjzxyirh5lW66Gy5ChBu5SoYxv3Yzh9gG7po0SLZtQub/dtttbW1sns3DhEQHCcAwJ2265Hz1gk351NEB+NUgHCLU8109oUD2AC2iurqannnHRzP5karqamRfftwDJzgQDgA7pwbnjnpBeHmZFroVFIKEG5JKZuOfsf2gG3M3Llz5cABHKjtVps3b5689x4O8hYc6Q3AXXTLQ2e8IdycSQUdMaEA4WZCZT9tjOgB2zgcRXPkyBFno5g5c6Y6Wqf7xO8LPYC74qyz9hwj3OxpT8sWFCDcLIjugclhPWCbUFlZqcBx7733Ouv27du31Vlwx48fh49negB33VmH7ThGuNnRnVYtKUC4WRLeYbP394BtypQpUxTY7r8fv3K73bhxQwHu448/hqP4F6Yob7jttVHvCDejctOYbQUIN9sZcMs+yjPM71VOmDBBgW3YMBRxfrTr168rwJ05g+JNUMYBcLf98D5xLwm3xCWmAZcUINxcyoZ9X/Bg7elx48YpsI0YgcdufrUrV64owF24gMdvCtQz/YogMW8Jt8SkZccuKkC4uZgVOz5hKeTcMWPGKLCNHYuFkn62ixcvKsB98QUWUAqWUs7zM5JYvSbcYpWTnbmuAOHmeobM+IeX16orKioU2MaPx6ttfrdz584pwF29ilfgBC/D1fgdUdneE25lS8gOfFKAcPMpW8n4iu1GFg0dOlSBbdIkbEaSjnb69GkFuK+/xiYmgu1MatMRWUlREG4lycabfFWAcPM1c/H4jQ0iXxg0aJAC29Sp2D4yXe3kyZMKcN9+i20oBRtSvpiuCAuOhnArWCpemAYFCLc0ZLG0GLCl//IBAwYosM2YgQ3/09m6uroU4L7/HgcJCI4UWJHOSPuNinALMOkhh0y4hZl9HMK2GqF3dnbKrFk4oi3d7fDhwzJ7No6AUw2HwtWnO+IfRUe4BZbw0MMl3MIbATg2uwFhd3R0yLPP4lDtMNr+/fulqgqHeKuGY70bw4hcRUm4BZRshipCuIU1CtaKyEaEvGfPHpk/f35Y0YvI3r17ZcGCBTrudSKyKRARCLdAEs0wf1CAcAtnJKwUkWaE29bWJkuWLAkn8qxI29vbZenSpfq3q0RkawBiEG4BJJkh/l0Bwi2M0bBMRFoQaktLiyxbhj+G3VpbW6Wurk6LgB9aU64I4ZbyBDO83goQbukfESjR2hBmc3OzrFyJAo4NCmzdulVWrULhphpKufYUK0O4pTi5DO3HChBu6R4VeKi2ByFu3LhR1q7FIze2qAKbNm2Sdevw6E01PIzbm1KFCLeUJpZh9a0A4ZbekYFlkB0Ir6GhQZqasEiSrS8FGhsbZcMGLJ5UDcsp96dQKcIthUllSLkVINzSOTrw4lonQlu9erVs3ozX2tj6U6C+vl62bMHrb6rhhbjDKVOMcEtZQhlO/woQbg6OkLt379510C26VIQC99xzT77PVhG9xXIp4RaLjOzEFwXyfQDxJZvvGl9i9cZPws2bVOV0lHDzP4eMwG8F8oGLcLOQ37TB7dq1azJz5kzB+2UPPfSQ2u7rww8/lNdee00wHZjGRrilMauMyScFCDcHs5U2uEUl/uSTT9QL5EeOHJHhw4c7qH48LhFu8ejIXqhAqQoQbqUql+B9aYObrtywsOVXv/qVXLlyRZ544gnBZsaDBw9OUEl7XRNu9rSnZSoABQg3B8dBWuGGaUk0Vm5WBh0XlFiRnUZtKUC42VK+H7uEm4NJKdIlVm5FCsbLqUDMChBuMQsaR3eEWxwq2u2DcLOrP61TAcLNwTFAuDmYlCJdItyKFIyXU4GYFSDcYhY0ju4ItzhUtNsH4WZXf1qnAoSbg2MgbXBzUOLEXSLcEpeYBqhAvwoQbg4OEMLNwaQU6RLhVqRgvJwKxKwA4RazoHF0R7jFoaLdPgg3u/rTOhUg3BwcA4Sbg0kp0iXCrUjBeDkViFkBwi1mQePojnCLQ0W7fRBudvWndSpAuDk4BnyG261bt9TGyNgoOc5NkbF11/nz52X37t2ZjEU3ZH7sMWzA4U4j3NzJBT0JUwHCzcG8E24/TsqiRYvULzXcsAHztGnT1O8++ugjIdzyDmRuv5VXIl6QJgUIN/eyufbu3bsbTbiFagi782MD45s3b2aOpamoqJDJkyerDY7RDh06JLNnzxZUSvr39913n4KKPsJm5MiR0tHRIUePHpVXX31V9bVw4UL131GjRsnBgwdF34P+8XtUeBs3bsz8Xvelq77Ozk5pbm6Wuro6+cUvfpHxZeLEibJmzRpZvHixsnHgwIG8cMuGY9L63nPPPetEZFPSdoron3ArQixe6r8ChJtbOVwpIs2mDuLOBbeurq7MFKAGzL59+6S6ulpWrVqlQJf9e8ANVVV0WhLgAQyXLVumpig1YHCOG35fWVmp7tF+aBvZcAN8Abho5YafUb3NmzcvJ9x0dffdd99lAG0q3T0Hca8Ska2mbOaxQ7g5kgi6YUaBfHA7JiKVZlyhFa2AbbjBD0z5RaEQrdq0n6jEopUaANYX3LZv366AqJ+bAW768FJMJ+oz3lD5LV26NPO8TgO0FLhFwW3jWJ0euLk2qN8WkX91zSn6QwWSUCAf3JKwyT5zK+BE5aafXwEuc+bMkREjRqhpxdraWnWadvT5VvYCElfgpiu7bEibGnwOVm6mQqcdKuCEAoSbE2no5YSxZ26A10svvSSnTp2SP/7xj1JTU6Oeo2FaEg2VWHZVpacf9b3vv/9+r2qrULhFpyujVVZ0+hHTmJcvX1bPBEuZloyqymdu7g10ekQFklSAcEtS3RL7NrVaMjrViJOxv/nmG1WZ6YUdH374oYqgkAUl+jlZMXB78MEH5ezZs5kFJagIdbUIu3hmp+HW0tKiFpFoX3Rl1t8ztxLlj+U2B18FiCUudkIFfFGAcHMwU6bgZit0DVX9LM6WH0naJdySVJd9U4H8ChBu+TUyfgXhZlzy2A0SbrFLyg6pQFEKEG5FyWXm4rTDzYyKdq0Qbnb1p3UqQLg5OAYINweTUqRLhFuRgvFyKhCzAoRbzILG0R3hFoeKdvsg3OzqT+tUgHBzcAykDW75dhIpNQVY3v/II4+oVxbwOgFWU6LhvTy83jB8+PBSuy77PsKtbAnZARUoSwHCrSz5krmZcMuva/SVgxkzZsiSJUvUPpkAWvT9OBu7k8B7wi1/DnkFFUhSAcItSXVL7NsW3LJ3G4luf6XfM0NIeCcOL1YDHNGKCe+lYa9IfRQNNkw+c+aM/OEPf5Bf/vKXag/Iq1evqo2V0T799NNMX8eOHVObJOPdN+yGom1gQ2e88J29hRcqNlRqejPm6K4pUb8JtxIHIW+jAp4rQLg5mEDX4NbW1iZVVVW9XvDGBspoABJAh4Zd/vF77Nof3YEkOi0JuOmdUPTpAwAXGrb6wkva06dPz5wJpzdfzoYbYJvr3LjodKWt9LJys6U87VKBHxQg3BwcCa7BTW9/9dZbb+Ws2rSMgJHe9V8DKRtuesuvIUOGZIAYBaWuCHE4aXZfevPlXHDr61BTGykm3GyoTptU4O8KEG4OjgYX4Qbg6GlLbMsF6KBln46N32XvQGIKbi5UbHo4EW4OfrDoUlAKEG4OptsW3CBFdINhvTAD05I4iubtt9/OLNjAMy/8o6cYoweNZk8lFgq3vvrChsl6+lH/jM2bsys3+IqpUxyt40Ij3FzIAn0IWQHCzcHs24Rbro2LseADz8TQCllQEl0EUgzcfvKTn8hXX33Vpw0sHvn5z38uDzzwgFq4AqDhDLjf//73snIlTgv6e4v6aCPFhJsN1WmTCnBa0ukxYBNutoSJHr9j8/20uOIn3OJSkv1QgdIUYOVWmm6J3kW42Xv5Oq7EEm5xKcl+qEBpChBupemW6F0hwi1RQS10TrhZEJ0mqUBEAcItncNhloh0IrTVq1erF63Z+lcAW3ht2bJFX4RVKT+8vMdGBaiAlwoQbl6mrSCnnxWRDlzZ0NAgTU1NBd0U4kWNjY2yYcMGHXqViOwPUQfGTAXSpADhlqZs/jiW+SKyB7/euHGjrF27Nt3RlhDdpk2bZN26dfrOBSKyt4RueAsVoAKOKUC4OZaQBNxZIiJt6BdbZWUvmU/Anjddbt26VW0X1tOWiki7N87TUSpABfpVgHALY4AsE5EWhIqXn5ctwx/Dbq2trYKXwnsafmgNWxFGTwXSpQDhlq589hcN3nJuxgXYcQRHxITa2tvb1Y4rPQ2l29ZQtWDcVCCtChBuac1s33HhodtG/NWePXtk/nw8kgur7d27VxYswKM11fCwbVNYCjBaKhCGAoRbGHmORollkw34BbauevZZLKoMo+3fv1/tP9nTsDyyMYzIGSUVCE8Bwi28nCNivPi2Gj9g2ytsTJz2hmN7Ipsq44W2+rTHzPioQMgKEG7hZv8NEVk+YMAAOXr0qMyYMSO1SnR1dcnTTz8t33//PWLcJiIrUhssA6MCVEApQLiFPRB2dB+/9sKgQYMU4KZOnZo6NU6ePKnA9u233yK2N0XkxdQFyYCoABX4kQKEGwfFLhzjNnToUAW4SZMmpUaR06dPK7B9/fXXiGm3iNSmJjgGQgWoQL8KEG4cIFDgHRGprqioUIAbP36896qcO3dOge3q1auIZZ+I1HgfFAOgAlSgYAUIt4KlSv2FB0Rk7pgxYxTgxo4d623AFy9eVGD74osvEMN7IjLP22DoOBWgAiUpQLiVJFtqbzoiIk+PGzdOAW7EiBHeBXrlyhUFtgsXLsD3oyIy07sg6DAVoAJlK0C4lS1hqjq4twcIlRMmTFCAGzZsmDcBXr9+XYHtzJkz8Pk4QC0it70JgI5SASoQmwKEW2xSpqaj+3sAN2XKlCkKcPffj1+53W7cuKHA9vHHH8NR/Atgu+G21/SOClCBpBQg3JJS1u9+Ua5hSm9CZWWlAty996Koc7Pdvn1bge34cRRrgrINYLvuprf0igpQARMKEG4mVPbTBh64AXDjAI4jR/A4zs02c+ZMBeDuFZ940AawXXHTU3pFBaiAKQUIN1NK+2kHSyZBjTFz586VAwewoNKtNm/ePHnvPSyIFCyNBNguuuUhvaECVMCGAoSbDdX9somX3gC4iurqannnHbwS50arqamRffvwCpvgZTaA7ZwbntELKkAFbCtAuNnOgB/2sW0JADd00aJFsmsXNjWx22pra2X3bmw6Ith+BGA7bdcjWqcCVMAlBQg3l7Lhti/YeBKAG/TCCy/Ijh3YltJOe/HFF+XNN7FNpGDDSIDtpB1PaJUKUAFXFSDcXM2Mm37h6AAAbsDy5cvljTdwsIDZtmLFCtm2DRv7C7b4B9i6zHpAa1SACvigAOHmQ5bc8hGHv3XCpdWrV8vmzTgazkyrr6+XLVtwFJtqs0XksBnLtEIFqIBvChBuvmXMDX9xfHcHXGloaJCmJhzunWxrbGyUDRtweLZqOE57f7IW2TsVoAI+K0C4+Zw9u77PF5E9cGHjxo2ydu3axLzZtGmTrFu3Tve/QET2JmaMHVMBKpAKBQi3VKTRWhBLRKQN1pubm2XlypWxO7J161ZZtWqV7nepiLTHboQdUgEqkDoFCLfUpdR4QMtEpAVWW1paZNky/DGe1traKnV1dboz/NAaT8/shQpQgbQrQLilPcNm4kPJ1gxTbW1tsmQJCrryWnt7uyxdikJNNZRuW8vrkXdTASoQkgKEW0jZTjZWPHTbCBN79uyR+fPxSK60tnfvXlmwAI/WVMPDtk2l9cSvcvsZAAABuElEQVS7qAAVCFUBwi3UzCcTN5ZNNqDrjo4OefZZLKosru3fv1+qqrAYUjUsj2wsrgdeTQWoABUQIdw4CuJWAC++rUannZ2dMmsWXosrrB0+fFhmz8bra6rhhbb6wu7kVVSAClCB3goQbhwRSSiArUuWDxgwQB1FM2MGNjbpv3V1dakz2b7/HhuPCLYgWZHvHv49FaACVCCXAoQbx0ZSCmDzyRcGDRqkADd1Kram7LudPHlSge3bb7FVpGDTyBeTcor9UgEqEIYChFsYebYVJY4PWDR06FAFuEmTcLhA73b69GkFtq+/xub+gm3+a205S7tUgAqkRwHCLT25dDUSHABXXVFRoQA3fjyOh/uhnTt3ToHt6lUcxyY4mK3G1SDoFxWgAn4pQLj5lS9fvcUR3nPHjBmjADd27Fi5ePGiAtsXX+AAbcFR2vN8DY5+UwEq4J4ChJt7OUmrR0dwRM24ceMU4AC2CxcuIFYcoTMzrUEzLipABewoQLjZ0T1Eq/f2gKxywoQJcubMGWhwvOdMttshCsKYqQAVSE4Bwi05bdnzjxW4vwdwU0Tk4x6w3aBQVIAKUIG4Ffj/EPdLQ2VJ2hkAAAAASUVORK5CYII=;" vertex="1" parent="1">
                    <mxGeometry x="250" y="20" width="439" height="1012" as="geometry"/>
                </mxCell>
            </root>
        </mxGraphModel>
    </diagram>
</mxfile>